<svg id="Calque_1" data-name="Calque 1" xmlns="http://www.w3.org/2000/svg" viewBox="0 0 1280 800"><defs><style>.cls-1{fill:#ccc;}.cls-2{fill:none;stroke:#000;stroke-miterlimit:10;stroke-width:4px;stroke-dasharray:20 26;}</style></defs><title>fond-menuPlan de travail 10</title><rect class="cls-1" x="-130.5" y="-33.03" width="1462.91" height="885.6"/><path class="cls-2" d="M-97.21,503.75c88.56,0,50.61-94.89,113.86-145.49S251,410.18,196.94,431c-76.79,29.59-68.25-183.92-25.57-202.22,73.08-31.32,120.48,82,164.74,31.42,66.25-75.79-50.84-152.08,57.11-224.56C511-43.47,791.76,92.58,766.36,326.63s167.56,338.43,183.36,246.7-10.94-221.4,79.92-174,11,129.68-9.14,126.51-167.41,12.65-158.64-79.07S839.11,146.34,994,168.48,1161.13,341.87,1303.7,278.9s174.79-187,174.79-187"/></svg>