<svg id="Calque_1" data-name="Calque 1" xmlns="http://www.w3.org/2000/svg" xmlns:xlink="http://www.w3.org/1999/xlink" viewBox="0 0 1280 800"><defs><style>.cls-1{fill:#ccc;}.cls-2{fill:url(#Dégradé_sans_nom);}.cls-3{fill:url(#Dégradé_sans_nom_2);}.cls-4{fill:none;stroke:#000;stroke-miterlimit:10;stroke-width:4px;stroke-dasharray:20 26;}</style><linearGradient id="Dégradé_sans_nom" x1="600.96" y1="601.37" x2="600.96" y2="818.55" gradientTransform="matrix(1, 0, 0, -1, 0, 800)" gradientUnits="userSpaceOnUse"><stop offset="0" stop-color="#ccc" stop-opacity="0"/><stop offset="0.86" stop-color="#6c6c6c" stop-opacity="0.28"/><stop offset="1" stop-opacity="0.6"/></linearGradient><linearGradient id="Dégradé_sans_nom_2" x1="1782.42" y1="-479.22" x2="1782.42" y2="-137.17" gradientTransform="matrix(-1, 0, 0, 1, 2401.91, 946.85)" xlink:href="#Dégradé_sans_nom"/></defs><title>fond-menuPlan de travail 1</title><rect class="cls-1" x="-130.5" y="-104.29" width="1462.91" height="956.87"/><rect class="cls-2" x="-130.5" y="-18.55" width="1462.91" height="217.18"/><rect class="cls-3" x="-111.96" y="467.63" width="1462.91" height="342.05"/><path class="cls-4" d="M-97.21,518.47c88.56,0,50.61-94.89,113.86-145.49S251,424.92,196.94,445.74c-76.79,29.59-68.25-183.92-25.57-202.22,73.08-31.32,120.48,82,164.74,31.42,66.25-75.79-50.84-152.08,57.11-224.56,117.78-79.11,398.54,56.93,373.14,291s167.56,338.42,183.36,246.7-10.94-221.4,79.92-174,11,129.68-9.14,126.51-167.41,12.65-158.64-79.07S839.11,161.08,994,183.22s167.09,173.38,309.66,110.41,174.79-187,174.79-187"/></svg>