<svg id="Calque_1" data-name="Calque 1" xmlns="http://www.w3.org/2000/svg" viewBox="0 0 300 300"><defs><style>.cls-1,.cls-5{fill:#fff;}.cls-2,.cls-4{fill:#ccc;}.cls-2,.cls-3,.cls-4,.cls-5,.cls-7,.cls-8{stroke:#000;stroke-miterlimit:10;}.cls-2,.cls-3{stroke-width:8.36px;}.cls-3,.cls-6{fill:gold;}.cls-4{stroke-width:7.54px;}.cls-5{stroke-width:4.78px;}.cls-7,.cls-8{fill:none;}.cls-7{stroke-width:3.77px;stroke-dasharray:3.77 7.54;}.cls-8{stroke-width:21px;}</style></defs><title>pastillePlan de travail 6 copie</title><path class="cls-1" d="M284.33,149.84a135.63,135.63,0,0,1-41.39,97.61,136.66,136.66,0,0,1-34.68,24.35c-3.85,1.85-7.77,3.54-11.76,5.05A131.23,131.23,0,0,1,174,283.18h-.11l-.57.11c-3.39.64-6.86,1.17-10.37,1.51h-.11a135.73,135.73,0,0,1-137.34-77.7,140.29,140.29,0,0,1-5.62-14.18.43.43,0,0,1-.11-.3A134.41,134.41,0,0,1,13,154.89c0-.94-.08-1.85-.08-2.75,0-.75,0-1.55,0-2.3a132.37,132.37,0,0,1,1.36-19,126.23,126.23,0,0,1,2.45-13,135.74,135.74,0,0,1,267.63,32.08Z"/><path d="M174,283.19c2.38-27.67,7.28-94.51-1.06-92.86a158.37,158.37,0,0,0-16.7,4.18c15.49,15.49,10.33,65.48,6.6,90.29Z"/><path class="cls-2" d="M179.26,184.07c-30.45,0-32.29-31.45-16.73-41.82,12.55-8.36,46-16.73,54.37-4.18S196,184.07,179.26,184.07Z"/><path class="cls-2" d="M186.16,189.69c-15.27-26.53-40.36-34.9-61.27-18.17-10.33,8.26-26.5,35.7-9.63,39.31S186.16,189.69,186.16,189.69Z"/><path class="cls-2" d="M148.83,203.63c-32.3,5.53-63.67,20.17-34.4,32.71,15.38,6.59,51.49-1.44,52.28-14.64S160.49,201.64,148.83,203.63Z"/><path class="cls-3" d="M191.8,184.07c-23.66,0,28-52.17,41.82-41.82,16.73,12.55-4.18,54.37-16.73,54.37S196,184.07,191.8,184.07Z"/><path class="cls-3" d="M175.08,192.43c-9.1,0-28.56,27.05-12.55,33.46,20.91,8.36,58.55-25.09,54.37-37.64S182.85,192.43,175.08,192.43Z"/><path d="M139.53,211.25c-9.17-1.83-6.52-28.54,16.73-41.82,29.27-16.73,41.82,0,41.82,8.36C198.08,190.34,160.44,215.44,139.53,211.25Z"/><path d="M242.94,247.45c.19-37.47-2.49-98.06-21.11-106a154.39,154.39,0,0,1,13.95-10.14c6.22-4.07,13.69,63.49,17.64,104.77A135.85,135.85,0,0,1,242.94,247.45Z"/><path class="cls-4" d="M223.43,127c-25.46,10.26-38.61,3.42-37.12-18.61,1.07-15.79,37.7-49,53.09-32.54C248.68,85.77,237.42,121.34,223.43,127Z"/><path class="cls-2" d="M247.76,125.79c-24.08-18.9-53.26-17.33-66.41,6-6.49,11.52-8.36,50.19,16.73,46C215.09,175,247.76,125.79,247.76,125.79Z"/><path class="cls-2" d="M220.24,142.3c-27.9,17.2-43.12,41.49-26.39,41.47s52-8.47,47.83-21S230.31,136.09,220.24,142.3Z"/><path class="cls-4" d="M233.92,122.75c-19.78,8,5.23-52.31,20.25-48.31,18.21,4.85,21.8,44.78,11.31,49S237.42,121.34,233.92,122.75Z"/><path class="cls-2" d="M279.93,140.89a74.07,74.07,0,0,1-5.05,10.94c-5.63,9.89-13.46,17.58-22.44,17.61-17.24,0-19-39.57-12.54-46,12-12,24-18.47,32.92-17.36"/><path d="M212.56,163.22c-9.33-.69-16.71-24-.12-45,20.9-26.46,41.06-23.42,44.18-15.66C261.32,114.16,239.9,165.25,212.56,163.22Z"/><path d="M208.25,271.8c-3.85,1.85-7.77,3.54-11.76,5.05,5.39-16.89,8.6-37.66-2.6-48.86a149.86,149.86,0,0,1,16.74-4.18C216.89,222.53,212.67,249.75,208.25,271.8Z"/><path class="cls-5" d="M80.57,119c-10.23-9.9-6.4-22-.33-20.13S80.57,119,80.57,119Z"/><path d="M98,118.35c0,2.25-1.8,4.82-4.5,7.12a26.76,26.76,0,0,1-3.1,2.27,24.2,24.2,0,0,1-2.6,1.5h0a33.19,33.19,0,0,1-4,1.77h0a23.87,23.87,0,0,1-2.8.85,19.59,19.59,0,0,1-5.12.6c-3.72-.1-6.74-1.67-7.84-5.47a6.21,6.21,0,0,1,.6-4.8,12.49,12.49,0,0,1,3.1-3.72v0a20.87,20.87,0,0,1,2.75-2,29.91,29.91,0,0,1,3.32-1.8,31.19,31.19,0,0,1,3.95-1.47,26.93,26.93,0,0,1,3.6-.87C92,111.13,98,112.52,98,118.35Z"/><path class="cls-6" d="M81,131.86a19.59,19.59,0,0,1-5.12.6,28.38,28.38,0,0,1-6.59-8.62,15,15,0,0,1-.65-1.65,12.49,12.49,0,0,1,3.1-3.72,9.11,9.11,0,0,0,.95,3.8A26.24,26.24,0,0,0,81,131.86Z"/><path class="cls-6" d="M87.77,129.24a33.19,33.19,0,0,1-4,1.77h0a30.66,30.66,0,0,1-9.32-14.54,29.91,29.91,0,0,1,3.32-1.8C79,119.64,82.92,126.26,87.77,129.24Z"/><path class="cls-6" d="M93.49,125.47a26.76,26.76,0,0,1-3.1,2.27,31.16,31.16,0,0,1-8.67-14.54,26.93,26.93,0,0,1,3.6-.87A27.69,27.69,0,0,0,93.49,125.47Z"/><circle class="cls-1" cx="92.91" cy="115.8" r="2.5"/><circle class="cls-1" cx="94.16" cy="117.05" r="0.62"/><path d="M94.16,115.8A1.25,1.25,0,1,0,95.41,117a1.25,1.25,0,0,0-1.25-1.25Z"/><path class="cls-5" d="M80.1,119.5c-13.86,3.24-22-6.56-17.1-10.62S80.1,119.5,80.1,119.5Z"/><path class="cls-7" d="M25.52,207.11c14.48-3.05,32.38-11,34.5-21.45,3.77-18.85-15.08-49,3.77-56.55"/><path class="cls-2" d="M216.9,217.53c-30.45,0-32.29-31.45-16.73-41.82,12.55-8.36,46-16.73,54.37-4.18S233.63,217.53,216.9,217.53Z"/><path class="cls-2" d="M223.8,223.15c-15.27-26.53-40.36-34.9-61.27-18.17-10.33,8.26-26.5,35.7-9.63,39.31S223.8,223.15,223.8,223.15Z"/><path class="cls-2" d="M186.47,237.09c-21.85,3.44-44.67,7-34.4,20.17,14.64,18.82,51.49,11.11,52.28-2.09S198.15,235.25,186.47,237.09Z"/><path class="cls-2" d="M276,181.89a14.44,14.44,0,0,0-4.7-6.18c-13.79-10.35-65.48,41.82-41.82,41.82,4.18,0,12.55,12.55,25.1,12.55a9,9,0,0,0,4.74-1.65"/><path class="cls-2" d="M212.72,225.89c-9.1,0-28.56,27.05-12.55,33.46,20.91,8.36,58.55-25.09,54.37-37.64S220.49,225.89,212.72,225.89Z"/><path d="M177.17,244.71c-9.17-1.83-6.52-28.54,16.73-41.82,29.27-16.73,41.82,0,41.82,8.36C235.72,223.8,198.08,248.89,177.17,244.71Z"/><path class="cls-8" d="M286.19,149.84c0,.75,0,1.54,0,2.29,0,.93,0,1.82-.07,2.75a134.69,134.69,0,0,1-6.78,37.75.42.42,0,0,1-.11.29A135.75,135.75,0,1,1,242.4,50q4.3,3.93,8.25,8.26A134.69,134.69,0,0,1,281,112.63q.72,2.55,1.35,5.14c.53,2.19,1,4.38,1.42,6.6s.76,4.27,1,6.44a131.11,131.11,0,0,1,1.34,16.81C286.18,148.36,286.19,149.1,286.19,149.84Z"/></svg>