<svg id="Calque_1" data-name="Calque 1" xmlns="http://www.w3.org/2000/svg" viewBox="0 0 300 300"><defs><style>.cls-1,.cls-3{fill:#fff;}.cls-2,.cls-5{fill:none;}.cls-2,.cls-3,.cls-5,.cls-6{stroke:#000;stroke-miterlimit:10;}.cls-2{stroke-width:21px;}.cls-3{stroke-width:4.71px;}.cls-4{fill:gold;}.cls-5{stroke-width:3.77px;stroke-dasharray:3.77 7.54;}.cls-6{fill:#ccc;stroke-width:10.04px;}</style></defs><title>pastillePlan de travail 6 copie 2</title><path class="cls-1" d="M286.07,149.84a135.63,135.63,0,0,1-41.39,97.61A136.66,136.66,0,0,1,210,271.8c-3.85,1.85-7.77,3.54-11.76,5.05a131.22,131.22,0,0,1-22.47,6.33h-.11l-.57.11c-3.39.64-6.86,1.17-10.37,1.51h-.11l-1.17.11c-2.19.23-4.37.38-6.6.49s-4.3.15-6.48.15A135.73,135.73,0,0,1,27.26,207.11a140.35,140.35,0,0,1-5.62-14.18.43.43,0,0,1-.11-.3,134.41,134.41,0,0,1-6.79-37.74c0-.94-.08-1.85-.08-2.75,0-.75,0-1.55,0-2.3a132.37,132.37,0,0,1,1.36-19,126.23,126.23,0,0,1,2.45-13,135.74,135.74,0,0,1,267.63,32.08Z"/><path class="cls-2" d="M286.07,149.84a135.63,135.63,0,0,1-41.39,97.61A136.66,136.66,0,0,1,210,271.8c-3.85,1.85-7.77,3.54-11.76,5.05a131.22,131.22,0,0,1-22.47,6.33h-.11l-.57.11c-3.39.64-6.86,1.17-10.37,1.51h-.11l-1.17.11c-2.19.23-4.37.38-6.6.49s-4.3.15-6.48.15A135.73,135.73,0,0,1,27.26,207.11a140.35,140.35,0,0,1-5.62-14.18.43.43,0,0,1-.11-.3,134.41,134.41,0,0,1-6.79-37.74c0-.94-.08-1.85-.08-2.75,0-.75,0-1.55,0-2.3a132.37,132.37,0,0,1,1.36-19,126.23,126.23,0,0,1,2.45-13,135.74,135.74,0,0,1,267.63,32.08Z"/><path class="cls-3" d="M201.77,82.21c-10.08-9.76-6.31-21.73-.33-19.84S201.77,82.21,201.77,82.21Z"/><path d="M218.93,81.55c0,2.22-1.77,4.75-4.43,7a26.37,26.37,0,0,1-3.05,2.24,23.84,23.84,0,0,1-2.56,1.48h0A32.7,32.7,0,0,1,204.95,94h0a23.53,23.53,0,0,1-2.76.84,19.3,19.3,0,0,1-5,.59c-3.67-.1-6.65-1.65-7.73-5.39a6.12,6.12,0,0,1,.59-4.73A12.31,12.31,0,0,1,193,81.67v0a20.57,20.57,0,0,1,2.71-1.94A29.48,29.48,0,0,1,199,77.93a30.74,30.74,0,0,1,3.89-1.45,26.54,26.54,0,0,1,3.54-.86C213,74.43,218.93,75.81,218.93,81.55Z"/><path class="cls-4" d="M202.16,94.86a19.3,19.3,0,0,1-5,.59,28,28,0,0,1-6.5-8.49,14.79,14.79,0,0,1-.64-1.62A12.31,12.31,0,0,1,193,81.67a9,9,0,0,0,.94,3.74A25.85,25.85,0,0,0,202.16,94.86Z"/><path class="cls-4" d="M208.86,92.28A32.7,32.7,0,0,1,204.95,94h0a30.21,30.21,0,0,1-9.18-14.33A29.48,29.48,0,0,1,199,77.93C200.27,82.83,204.09,89.35,208.86,92.28Z"/><path class="cls-4" d="M214.5,88.56a26.37,26.37,0,0,1-3.05,2.24,30.71,30.71,0,0,1-8.54-14.33,26.54,26.54,0,0,1,3.54-.86A27.28,27.28,0,0,0,214.5,88.56Z"/><circle class="cls-1" cx="213.93" cy="79.04" r="2.46"/><circle class="cls-1" cx="214.5" cy="77.93" r="0.62"/><path d="M214.5,76.7a1.23,1.23,0,1,0,1.23,1.23,1.23,1.23,0,0,0-1.23-1.23Z"/><path class="cls-3" d="M201.3,82.68c-13.66,3.19-21.68-6.46-16.85-10.47S201.3,82.68,201.3,82.68Z"/><path class="cls-5" d="M145.46,127.88c-9.68-.85-40.88-29.07-24.66-40.58C143.27,71.36,155.39,114,185.4,94"/><path class="cls-5" d="M16.32,128.65c12.1-7,23.52-13.87,32.72-13.87,22.43,0,35.82,7.73,43.39,21.23"/><path d="M167.31,228.22c-1.28,7.58-2.15,17.87-2.79,28.5-.41,7.24-.68,14.67-.9,21.45-.08,2.34-.15,4.6-.19,6.75-2.19.23-4.37.38-6.6.49.08-1.51.11-3.05.19-4.67.15-4.9.26-10.22.26-15.61,0-13-.6-26.5-2.68-35.21C152.65,221.66,168.56,220.9,167.31,228.22Z"/><path class="cls-6" d="M164.75,204.94c-33-15.68-23.43-62.28-2-69,36.5-11.37,73,11.34,77.73,40.94C243.33,194.79,182.88,213.56,164.75,204.94Z"/><path class="cls-6" d="M164.75,204.24c9.13-45.21-17.15-76.36-58.42-66.34C78,144.79,70.61,160.45,82.07,170.13,97.46,183.13,164.75,204.24,164.75,204.24Z"/><path class="cls-6" d="M127.59,193.13C102.14,185.6,86.84,152,57.8,168.28c-46.61,26.14,51.41,63,59.07,49.06S141.2,197.16,127.59,193.13Z"/><path class="cls-6" d="M145.79,210c-25.45-7.53-96.95-21.81-92.31-2.27,6.24,26.3,74.12,49.37,121.1,12.3C187,210.17,159.4,214,145.79,210Z"/><path class="cls-6" d="M182.49,208.23c-25.64-12.19,50.83-53.87,69.11-44.61C274,175,246.16,217.31,225.8,203.7,213.28,195.33,187,210.39,182.49,208.23Z"/><path class="cls-6" d="M160.51,201.09c-9.87-4.69-37.55,22-19.91,32.85,33.18,20.31,127.53-22.63,104.2-35.18C225.47,188.36,168.94,205.1,160.51,201.09Z"/><path d="M142.62,218.85c-12,0-33.67-1.16-44.15-8.92-3.75-2.77-5.22-6.68-4.06-10.71,3.69-12.8,33.53-24.41,57.74-26.24,3.73-.28,7.45-.43,11-.43,19.85,0,43.21,5.1,50.65,16.48,2.13,3.26,2.55,6.75,1.2,9.82C208.64,213.42,167.22,218.85,142.62,218.85Z"/><path d="M163.19,176.32c33.6,0,52.06,12.68,48.4,21-4.71,10.72-39,17.73-69,17.73-17.87,0-34.22-2.49-41.9-8.18-13-9.63,19.67-27.74,51.72-30.16q5.6-.42,10.75-.41m0-7.54v0c-3.69,0-7.5.15-11.33.44a121.14,121.14,0,0,0-38.23,9.5c-9,4-20.28,10.58-22.84,19.46-1.6,5.55.43,11.08,5.44,14.78,6,4.41,18.83,9.66,46.39,9.66,22.86,0,68.14-4.65,75.87-22.24,1.88-4.28,1.35-9-1.5-13.4-7.22-11.05-28.33-18.19-53.8-18.19Z"/><circle class="cls-4" cx="123.55" cy="195.88" r="1.45"/><circle class="cls-4" cx="129.19" cy="193.13" r="1.6"/><circle class="cls-4" cx="136.7" cy="186.74" r="1.23"/><circle class="cls-4" cx="153.25" cy="188.4" r="1.66"/><circle class="cls-4" cx="147.43" cy="183.36" r="1.64"/><circle class="cls-4" cx="142.14" cy="187.61" r="0.88"/><circle class="cls-4" cx="125.17" cy="189.59" r="1.63"/><circle class="cls-4" cx="141.29" cy="193.98" r="0.86"/><circle class="cls-4" cx="135.64" cy="200.73" r="1.05"/><circle class="cls-4" cx="142.35" cy="202.87" r="1.08"/><circle class="cls-4" cx="126.76" cy="200.92" r="1.25"/><circle class="cls-4" cx="113.41" cy="192.98" r="1.45"/><circle class="cls-4" cx="152.89" cy="195.01" r="2.03"/><circle class="cls-4" cx="162.02" cy="184.95" r="1.98"/><circle class="cls-4" cx="156.22" cy="181.87" r="1.31"/><circle class="cls-4" cx="170.1" cy="184.69" r="1.72"/><circle class="cls-4" cx="165.3" cy="179.67" r="1.3"/><circle class="cls-4" cx="129.61" cy="184.14" r="1.18"/><circle class="cls-4" cx="140.61" cy="182.3" r="1.74"/><circle class="cls-4" cx="147.07" cy="192.81" r="1.29"/><circle class="cls-4" cx="150.81" cy="208.04" r="2.45"/><circle class="cls-4" cx="155.5" cy="200.11" r="1.3"/><circle class="cls-4" cx="160.92" cy="192.1" r="0.88"/><circle class="cls-4" cx="165.95" cy="192.17" r="0.64"/><circle class="cls-4" cx="129.88" cy="206.28" r="0.69"/><circle class="cls-4" cx="117.71" cy="200.7" r="1.47"/><circle class="cls-4" cx="165.77" cy="201.45" r="1.77"/><circle class="cls-4" cx="173.2" cy="194.5" r="1.37"/><circle class="cls-4" cx="176.67" cy="188.34" r="1.41"/><circle class="cls-4" cx="175.31" cy="181.11" r="2.12"/><circle class="cls-4" cx="186.53" cy="184.8" r="2.5"/><circle class="cls-4" cx="149.61" cy="179.62" r="1.25"/><circle class="cls-4" cx="118.48" cy="189.86" r="2.24"/><circle class="cls-4" cx="108.68" cy="198.76" r="2.35"/><circle class="cls-4" cx="113.41" cy="205.4" r="1.45"/><circle class="cls-4" cx="124.63" cy="207.79" r="1.51"/><circle class="cls-4" cx="135.28" cy="207.7" r="1.42"/><circle class="cls-4" cx="144.61" cy="199.16" r="1.18"/><circle class="cls-4" cx="134.57" cy="193.53" r="0.71"/><circle class="cls-4" cx="160.61" cy="208.42" r="2.14"/><circle class="cls-4" cx="172.85" cy="201.14" r="1.03"/><circle class="cls-4" cx="159.7" cy="196.92" r="1.22"/><circle class="cls-4" cx="182.41" cy="194.43" r="1.62"/><circle class="cls-4" cx="193.31" cy="191.83" r="1.77"/><circle class="cls-4" cx="194.51" cy="184.16" r="0.79"/><circle class="cls-4" cx="182.25" cy="203.19" r="2.09"/><circle class="cls-4" cx="169.95" cy="206.22" r="1.57"/><circle class="cls-4" cx="189.09" cy="195.9" r="0.9"/><circle class="cls-4" cx="181.07" cy="185.23" r="0.28"/><circle class="cls-4" cx="167.96" cy="187.35" r="0.42"/><circle class="cls-4" cx="145.65" cy="188.96" r="0.63"/><circle class="cls-4" cx="151.07" cy="184.78" r="0.74"/><circle class="cls-4" cx="178.15" cy="199.45" r="1.47"/><circle class="cls-4" cx="189.09" cy="201.6" r="0.9"/><circle class="cls-4" cx="197.88" cy="196.84" r="1.14"/><circle class="cls-4" cx="198.94" cy="189.28" r="0.31"/><circle class="cls-4" cx="183.22" cy="190.08" r="0.81"/><circle class="cls-4" cx="182.43" cy="180.27" r="0.6"/><circle class="cls-4" cx="203.73" cy="193.62" r="2.09"/><circle class="cls-4" cx="202.46" cy="188.15" r="0.81"/><circle class="cls-4" cx="192.5" cy="187.37" r="0.96"/><path d="M161,264.36c1.14-8.11,14.89-20.9,17.25-19.24s.12,38.15-8.23,38.77S161,264.36,161,264.36Z"/><path d="M156.8,280.82c-9.61-8.79-13.4-14.87-14.66-18.25s16.69-.68,19.66,7.89S156.8,280.82,156.8,280.82Z"/></svg>