<svg id="Calque_1" data-name="Calque 1" xmlns="http://www.w3.org/2000/svg" viewBox="0 0 300 300"><defs><style>.cls-1,.cls-10,.cls-7,.cls-9{fill:#fff;}.cls-12,.cls-2,.cls-5,.cls-6{fill:none;}.cls-3{fill:#ccc;}.cls-10,.cls-11,.cls-12,.cls-3,.cls-4,.cls-5,.cls-6,.cls-7,.cls-9{stroke:#000;stroke-miterlimit:10;}.cls-11,.cls-3,.cls-4,.cls-6{stroke-width:11.31px;}.cls-5{stroke-width:3.77px;stroke-dasharray:3.77 7.54;}.cls-7{stroke-width:4.15px;}.cls-8{fill:gold;}.cls-9{stroke-width:1.4px;}.cls-10{stroke-width:2.44px;}.cls-11{fill:#5b5a59;}.cls-12{stroke-width:21px;}</style></defs><title>pastillePlan de travail 6 copie 3</title><path class="cls-1" d="M285.82,149.84c0,.75,0,1.54,0,2.29,0,.93,0,1.82-.07,2.75a134.69,134.69,0,0,1-6.78,37.75.42.42,0,0,1-.11.29A135.75,135.75,0,1,1,242,50q4.3,3.93,8.25,8.26a134.69,134.69,0,0,1,30.37,54.36q.72,2.55,1.35,5.14c.53,2.19,1,4.38,1.42,6.6s.76,4.27,1,6.44a131.11,131.11,0,0,1,1.34,16.81C285.81,148.36,285.82,149.1,285.82,149.84Z"/><path class="cls-2" d="M285.82,149.84c0,.75,0,1.54,0,2.29,0,.93,0,1.82-.07,2.75a134.69,134.69,0,0,1-6.78,37.75.42.42,0,0,1-.11.29A135.75,135.75,0,1,1,242,50q4.3,3.93,8.25,8.26a134.69,134.69,0,0,1,30.37,54.36q.72,2.55,1.35,5.14c.53,2.19,1,4.38,1.42,6.6s.76,4.27,1,6.44a131.11,131.11,0,0,1,1.34,16.81C285.81,148.36,285.82,149.1,285.82,149.84Z"/><polygon class="cls-3" points="234.92 132.88 118.05 95.17 118.05 129.1 234.92 166.81 234.92 132.88"/><polygon class="cls-3" points="234.92 166.81 118.05 129.1 118.05 166.81 234.92 204.5 234.92 166.81"/><polygon class="cls-3" points="234.92 204.5 118.05 166.81 118.05 204.5 234.92 245.97 234.92 204.5"/><polygon class="cls-3" points="231.15 129.1 167.06 61.24 114.28 95.17 231.15 129.1"/><path class="cls-4" d="M177.83,221.47c0-9.43-14.54-20.74-14.69-3.18"/><path class="cls-4" d="M147.67,213.93c.54-17-11.06-19.56-14.69-7"/><path class="cls-5" d="M29.8,212.72c10.1-6.86,21-21.45,24.17-30.84"/><polygon points="206.65 104.6 131.07 80.22 114.28 91.41 227.38 129.1 206.65 104.6"/><polyline class="cls-6" points="159.52 57.48 102.97 98.94 114.28 98.94"/><polygon class="cls-4" points="242.46 249.75 114.28 204.5 99.2 208.28 227.38 261.41 242.46 249.75"/><path class="cls-7" d="M65.89,166.58c-8.9-8.61-5.57-19.17-.29-17.51S65.89,166.58,65.89,166.58Z"/><path d="M81,166a6.61,6.61,0,0,1-1.87,4.14,15.23,15.23,0,0,1-2,2c-.61.51-1.26,1-1.92,1.46a6.12,6.12,0,0,0-.71.51h-.05a12.68,12.68,0,0,1-2.27,1.31c-.15.05-.25.15-.4.2a6.29,6.29,0,0,1-1,.51c-.71.3-1.36.61-2.07.86a8.13,8.13,0,0,1-1.46.45l-1.11.3a16.86,16.86,0,0,1-2.12.35,10.3,10.3,0,0,1-1.72.15h-.51a8.61,8.61,0,0,1-3.69-.86,6.17,6.17,0,0,1-3.13-3.89,5.53,5.53,0,0,1,.56-4.19,10.51,10.51,0,0,1,2.68-3.23,13.56,13.56,0,0,1,2.37-1.72,18,18,0,0,1,2.93-1.57,25.39,25.39,0,0,1,3.44-1.31c1-.3,2.07-.56,3.08-.76C75.8,159.74,81,161,81,166Z"/><path class="cls-8" d="M66.24,177.75a17,17,0,0,1-4.45.52A24.68,24.68,0,0,1,56,170.77a13.05,13.05,0,0,1-.56-1.43,10.86,10.86,0,0,1,2.69-3.24,7.92,7.92,0,0,0,.83,3.3A22.81,22.81,0,0,0,66.24,177.75Z"/><path class="cls-8" d="M72.14,175.46A28.86,28.86,0,0,1,68.69,177h0a26.66,26.66,0,0,1-8.1-12.64,26,26,0,0,1,2.89-1.56C64.56,167.12,67.93,172.88,72.14,175.46Z"/><path class="cls-8" d="M77.12,172.18a23.27,23.27,0,0,1-2.69,2,27.1,27.1,0,0,1-7.54-12.64,23.42,23.42,0,0,1,3.13-.76A24.08,24.08,0,0,0,77.12,172.18Z"/><circle class="cls-1" cx="76.62" cy="163.78" r="2.17"/><circle class="cls-1" cx="77.71" cy="164.86" r="0.54"/><path d="M77.71,163.78a1.09,1.09,0,1,0,1.09,1.09,1.09,1.09,0,0,0-1.09-1.09Z"/><path class="cls-7" d="M65.48,167c-12.06,2.82-19.13-5.7-14.87-9.24S65.48,167,65.48,167Z"/><path class="cls-8" d="M67.21,177.47a2.61,2.61,0,0,0-1.41-2.22,2.75,2.75,0,0,0-1.11-.25,2.71,2.71,0,0,0-1.06.25,2.52,2.52,0,0,0-1.47,2.27,3.9,3.9,0,0,0,.1.76,10.31,10.31,0,0,0,1.72-.15,16.89,16.89,0,0,0,2.12-.35Z"/><path class="cls-8" d="M67.21,177.47a8.14,8.14,0,0,0,1.47-.45c.71-.25,1.36-.56,2.07-.86a6.29,6.29,0,0,0,1-.51,3.05,3.05,0,0,0-1-1.82,2.94,2.94,0,0,0-2.07-.81,3,3,0,0,0-2.93,2.22,2.36,2.36,0,0,0-.15.86,3.56,3.56,0,0,0,.45,1.67Z"/><path class="cls-8" d="M79.14,170.14a15.23,15.23,0,0,1-2,2c-.61.51-1.26,1-1.92,1.46a6.12,6.12,0,0,0-.71.51,3,3,0,0,1-.91-1.62,2.46,2.46,0,0,1-.05-.61,3.09,3.09,0,0,1,3.08-3.08A3,3,0,0,1,79.14,170.14Z"/><path class="cls-8" d="M64.18,177a2.72,2.72,0,0,1-.2,1.11,10.3,10.3,0,0,1-1.72.15h-.51a8.61,8.61,0,0,1-3.69-.86A1,1,0,0,1,58,177a3.06,3.06,0,0,1,3.08-3.08,3,3,0,0,1,2.53,1.31A3.06,3.06,0,0,1,64.18,177Z"/><path class="cls-8" d="M75.2,173.63a6.12,6.12,0,0,0-.71.51h-.05a12.68,12.68,0,0,1-2.27,1.31c-.15.05-.25.15-.4.2a6.29,6.29,0,0,1-1,.51A3,3,0,0,1,70.5,175a2.35,2.35,0,0,1,.3-1.16A2.5,2.5,0,0,1,73,172.47a1.89,1.89,0,0,1,.56.05A2.78,2.78,0,0,1,75.2,173.63Z"/><path class="cls-9" d="M148.27,208.41c-3-2.89-1.87-6.44-.1-5.88S148.27,208.41,148.27,208.41Z"/><path d="M153.35,208.22a2.22,2.22,0,0,1-.63,1.39,5.12,5.12,0,0,1-.68.68c-.2.17-.42.34-.64.49l-.24.17h0a4.26,4.26,0,0,1-.76.44l-.14.07a2.11,2.11,0,0,1-.34.17c-.24.1-.46.2-.7.29a2.73,2.73,0,0,1-.49.15l-.37.1a5.67,5.67,0,0,1-.71.12,3.46,3.46,0,0,1-.58.05h-.17a2.89,2.89,0,0,1-1.24-.29,2.07,2.07,0,0,1-1.05-1.31,1.86,1.86,0,0,1,.19-1.41,3.53,3.53,0,0,1,.9-1.09,4.56,4.56,0,0,1,.8-.58,6,6,0,0,1,1-.53,8.53,8.53,0,0,1,1.15-.44c.34-.1.7-.19,1-.25C151.6,206.11,153.35,206.52,153.35,208.22Z"/><path class="cls-8" d="M148.39,212.16a5.72,5.72,0,0,1-1.5.18,8.29,8.29,0,0,1-1.93-2.52,4.38,4.38,0,0,1-.19-.48,3.65,3.65,0,0,1,.9-1.09,2.66,2.66,0,0,0,.28,1.11A7.66,7.66,0,0,0,148.39,212.16Z"/><path class="cls-8" d="M150.37,211.39a9.69,9.69,0,0,1-1.16.52h0a9,9,0,0,1-2.72-4.25,8.74,8.74,0,0,1,1-.53A7.67,7.67,0,0,0,150.37,211.39Z"/><path class="cls-8" d="M152,210.29a7.82,7.82,0,0,1-.9.66,9.1,9.1,0,0,1-2.53-4.25,7.87,7.87,0,0,1,1.05-.26A8.09,8.09,0,0,0,152,210.29Z"/><circle class="cls-1" cx="151.88" cy="207.47" r="0.73"/><circle class="cls-1" cx="152.24" cy="207.83" r="0.18"/><path d="M152.24,207.47a.36.36,0,1,0,.36.36.36.36,0,0,0-.36-.36Z"/><path class="cls-9" d="M148.13,208.55c-4.05.95-6.43-1.92-5-3.1S148.13,208.55,148.13,208.55Z"/><path class="cls-8" d="M148.72,212.07a.88.88,0,0,0-.48-.75.92.92,0,0,0-.37-.08.91.91,0,0,0-.36.08.85.85,0,0,0-.49.76,1.31,1.31,0,0,0,0,.25,3.46,3.46,0,0,0,.58-.05,5.67,5.67,0,0,0,.71-.12Z"/><path class="cls-8" d="M148.72,212.07a2.74,2.74,0,0,0,.49-.15c.24-.08.46-.19.7-.29a2.11,2.11,0,0,0,.34-.17,1,1,0,0,0-.32-.61,1,1,0,0,0-.7-.27,1,1,0,0,0-1,.75.79.79,0,0,0-.05.29,1.2,1.2,0,0,0,.15.56Z"/><path class="cls-8" d="M152.72,209.61a5.12,5.12,0,0,1-.68.68c-.2.17-.42.34-.64.49l-.24.17a1,1,0,0,1-.31-.54.83.83,0,0,1,0-.2,1,1,0,0,1,1-1A1,1,0,0,1,152.72,209.61Z"/><path class="cls-8" d="M147.7,211.92a.91.91,0,0,1-.07.37,3.46,3.46,0,0,1-.58.05h-.17a2.89,2.89,0,0,1-1.24-.29.33.33,0,0,1,0-.14,1,1,0,0,1,1-1,1,1,0,0,1,.85.44A1,1,0,0,1,147.7,211.92Z"/><path class="cls-8" d="M151.4,210.78l-.24.17h0a4.26,4.26,0,0,1-.76.44l-.14.07a2.11,2.11,0,0,1-.34.17,1,1,0,0,1-.08-.39.79.79,0,0,1,.1-.39.84.84,0,0,1,.75-.46.64.64,0,0,1,.19,0A.93.93,0,0,1,151.4,210.78Z"/><path class="cls-9" d="M161.39,213.35c-3-2.89-1.87-6.44-.1-5.88S161.39,213.35,161.39,213.35Z"/><path d="M166.47,213.15a2.22,2.22,0,0,1-.63,1.39,5.12,5.12,0,0,1-.68.68c-.2.17-.42.34-.64.49l-.24.17h0a4.26,4.26,0,0,1-.76.44l-.14.07a2.11,2.11,0,0,1-.34.17c-.24.1-.46.2-.7.29a2.73,2.73,0,0,1-.49.15l-.37.1a5.67,5.67,0,0,1-.71.12,3.46,3.46,0,0,1-.58.05H160a2.89,2.89,0,0,1-1.24-.29,2.07,2.07,0,0,1-1.05-1.31,1.86,1.86,0,0,1,.19-1.41,3.53,3.53,0,0,1,.9-1.09,4.56,4.56,0,0,1,.8-.58,6,6,0,0,1,1-.53,8.53,8.53,0,0,1,1.15-.44c.34-.1.7-.19,1-.25C164.73,211,166.47,211.45,166.47,213.15Z"/><path class="cls-8" d="M161.51,217.1a5.72,5.72,0,0,1-1.5.18,8.29,8.29,0,0,1-1.93-2.52,4.38,4.38,0,0,1-.19-.48,3.65,3.65,0,0,1,.9-1.09,2.66,2.66,0,0,0,.28,1.11A7.66,7.66,0,0,0,161.51,217.1Z"/><path class="cls-8" d="M163.5,216.33a9.69,9.69,0,0,1-1.16.52h0a9,9,0,0,1-2.72-4.25,8.74,8.74,0,0,1,1-.53A7.67,7.67,0,0,0,163.5,216.33Z"/><path class="cls-8" d="M165.17,215.23a7.82,7.82,0,0,1-.9.66,9.1,9.1,0,0,1-2.53-4.25,7.87,7.87,0,0,1,1.05-.26A8.09,8.09,0,0,0,165.17,215.23Z"/><circle class="cls-1" cx="165" cy="212.4" r="0.73"/><circle class="cls-1" cx="165.37" cy="212.77" r="0.18"/><path d="M165.37,212.4a.36.36,0,1,0,.36.36.36.36,0,0,0-.36-.36Z"/><path class="cls-9" d="M161.26,213.49c-4.05.95-6.43-1.92-5-3.1S161.26,213.49,161.26,213.49Z"/><path class="cls-8" d="M161.84,217a.88.88,0,0,0-.48-.75.92.92,0,0,0-.37-.08.91.91,0,0,0-.36.08.85.85,0,0,0-.49.76,1.31,1.31,0,0,0,0,.25,3.46,3.46,0,0,0,.58-.05,5.67,5.67,0,0,0,.71-.12Z"/><path class="cls-8" d="M161.84,217a2.74,2.74,0,0,0,.49-.15c.24-.08.46-.19.7-.29a2.11,2.11,0,0,0,.34-.17,1,1,0,0,0-.32-.61,1,1,0,0,0-.7-.27,1,1,0,0,0-1,.75.79.79,0,0,0-.05.29,1.2,1.2,0,0,0,.15.56Z"/><path class="cls-8" d="M165.85,214.54a5.12,5.12,0,0,1-.68.68c-.2.17-.42.34-.64.49l-.24.17a1,1,0,0,1-.31-.54.83.83,0,0,1,0-.2,1,1,0,0,1,1-1A1,1,0,0,1,165.85,214.54Z"/><path class="cls-8" d="M160.82,216.85a.91.91,0,0,1-.07.37,3.46,3.46,0,0,1-.58.05H160a2.89,2.89,0,0,1-1.24-.29.33.33,0,0,1,0-.14,1,1,0,0,1,1-1,1,1,0,0,1,.85.44A1,1,0,0,1,160.82,216.85Z"/><path class="cls-8" d="M164.52,215.71l-.24.17h0a4.26,4.26,0,0,1-.76.44l-.14.07a2.11,2.11,0,0,1-.34.17,1,1,0,0,1-.08-.39.79.79,0,0,1,.1-.39.84.84,0,0,1,.75-.46.64.64,0,0,1,.19,0A.93.93,0,0,1,164.52,215.71Z"/><path class="cls-9" d="M127.91,211.89c-3-2.89-1.87-6.44-.1-5.88S127.91,211.89,127.91,211.89Z"/><path d="M133,211.69a2.22,2.22,0,0,1-.63,1.39,5.12,5.12,0,0,1-.68.68c-.2.17-.42.34-.64.49l-.24.17h0a4.26,4.26,0,0,1-.76.44l-.14.07a2.11,2.11,0,0,1-.34.17c-.24.1-.46.2-.7.29a2.73,2.73,0,0,1-.49.15l-.37.1a5.67,5.67,0,0,1-.71.12,3.46,3.46,0,0,1-.58.05h-.17a2.89,2.89,0,0,1-1.24-.29,2.07,2.07,0,0,1-1.05-1.31,1.86,1.86,0,0,1,.19-1.41,3.53,3.53,0,0,1,.9-1.09,4.56,4.56,0,0,1,.8-.58,6,6,0,0,1,1-.53,8.53,8.53,0,0,1,1.15-.44c.34-.1.7-.19,1-.25C131.24,209.59,133,210,133,211.69Z"/><path class="cls-8" d="M128,215.64a5.72,5.72,0,0,1-1.5.18,8.29,8.29,0,0,1-1.93-2.52,4.38,4.38,0,0,1-.19-.48,3.65,3.65,0,0,1,.9-1.09,2.66,2.66,0,0,0,.28,1.11A7.66,7.66,0,0,0,128,215.64Z"/><path class="cls-8" d="M130,214.87a9.69,9.69,0,0,1-1.16.52h0a9,9,0,0,1-2.72-4.25,8.74,8.74,0,0,1,1-.53A7.67,7.67,0,0,0,130,214.87Z"/><path class="cls-8" d="M131.68,213.77a7.82,7.82,0,0,1-.9.66,9.1,9.1,0,0,1-2.53-4.25,7.87,7.87,0,0,1,1.05-.26A8.09,8.09,0,0,0,131.68,213.77Z"/><circle class="cls-1" cx="131.51" cy="210.94" r="0.73"/><circle class="cls-1" cx="131.88" cy="211.31" r="0.18"/><path d="M131.88,210.94a.36.36,0,1,0,.36.36.36.36,0,0,0-.36-.36Z"/><path class="cls-9" d="M127.77,212c-4.05.95-6.43-1.92-5-3.1S127.77,212,127.77,212Z"/><path class="cls-8" d="M128.35,215.54a.88.88,0,0,0-.48-.75.92.92,0,0,0-.37-.08.91.91,0,0,0-.36.08.85.85,0,0,0-.49.76,1.31,1.31,0,0,0,0,.25,3.46,3.46,0,0,0,.58-.05,5.67,5.67,0,0,0,.71-.12Z"/><path class="cls-8" d="M128.35,215.54a2.74,2.74,0,0,0,.49-.15c.24-.08.46-.19.7-.29a2.11,2.11,0,0,0,.34-.17,1,1,0,0,0-.32-.61,1,1,0,0,0-.7-.27,1,1,0,0,0-1,.75.79.79,0,0,0-.05.29,1.2,1.2,0,0,0,.15.56Z"/><path class="cls-8" d="M132.36,213.08a5.12,5.12,0,0,1-.68.68c-.2.17-.42.34-.64.49l-.24.17a1,1,0,0,1-.31-.54.83.83,0,0,1,0-.2,1,1,0,0,1,1-1A1,1,0,0,1,132.36,213.08Z"/><path class="cls-8" d="M127.33,215.39a.91.91,0,0,1-.07.37,3.46,3.46,0,0,1-.58.05h-.17a2.89,2.89,0,0,1-1.24-.29.33.33,0,0,1,0-.14,1,1,0,0,1,1-1,1,1,0,0,1,.85.44A1,1,0,0,1,127.33,215.39Z"/><path class="cls-8" d="M131,214.25l-.24.17h0a4.26,4.26,0,0,1-.76.44l-.14.07a2.11,2.11,0,0,1-.34.17,1,1,0,0,1-.08-.39.79.79,0,0,1,.1-.39.84.84,0,0,1,.75-.46.64.64,0,0,1,.19,0A.93.93,0,0,1,131,214.25Z"/><path class="cls-10" d="M101,226c-5.24-5.07-3.28-11.29-.17-10.31S101,226,101,226Z"/><path d="M109.91,225.69a3.89,3.89,0,0,1-1.1,2.44,9,9,0,0,1-1.19,1.19c-.36.3-.74.59-1.13.86a3.6,3.6,0,0,0-.42.3h0a7.47,7.47,0,0,1-1.34.77c-.09,0-.15.09-.24.12a3.7,3.7,0,0,1-.59.3c-.42.18-.8.36-1.22.51a4.79,4.79,0,0,1-.86.27l-.65.18a9.93,9.93,0,0,1-1.25.21,6.06,6.06,0,0,1-1,.09h-.3a5.07,5.07,0,0,1-2.17-.51,3.63,3.63,0,0,1-1.84-2.29,3.25,3.25,0,0,1,.33-2.47,6.18,6.18,0,0,1,1.58-1.9,8,8,0,0,1,1.4-1,10.57,10.57,0,0,1,1.72-.92,14.94,14.94,0,0,1,2-.77c.59-.18,1.22-.33,1.81-.45C106.85,222,109.91,222.72,109.91,225.69Z"/><path class="cls-8" d="M101.22,232.6a10,10,0,0,1-2.62.31,14.53,14.53,0,0,1-3.38-4.41,7.68,7.68,0,0,1-.33-.84,6.39,6.39,0,0,1,1.59-1.91,4.66,4.66,0,0,0,.49,1.94A13.43,13.43,0,0,0,101.22,232.6Z"/><path class="cls-8" d="M104.7,231.26a17,17,0,0,1-2,.91h0a15.7,15.7,0,0,1-4.77-7.44,15.31,15.31,0,0,1,1.7-.92C100.23,226.35,102.22,229.74,104.7,231.26Z"/><path class="cls-8" d="M107.62,229.33a13.7,13.7,0,0,1-1.59,1.16,16,16,0,0,1-4.44-7.44,13.78,13.78,0,0,1,1.84-.45A14.17,14.17,0,0,0,107.62,229.33Z"/><circle class="cls-1" cx="107.33" cy="224.38" r="1.28"/><circle class="cls-1" cx="107.97" cy="225.02" r="0.32"/><path d="M108,224.38a.64.64,0,1,0,.64.64.64.64,0,0,0-.64-.64Z"/><path class="cls-10" d="M100.77,226.28c-7.1,1.66-11.26-3.36-8.76-5.44S100.77,226.28,100.77,226.28Z"/><path class="cls-8" d="M101.79,232.44a1.53,1.53,0,0,0-.83-1.31,1.62,1.62,0,0,0-.65-.15,1.6,1.6,0,0,0-.62.15,1.48,1.48,0,0,0-.86,1.34,2.3,2.3,0,0,0,.06.45,6.07,6.07,0,0,0,1-.09,9.94,9.94,0,0,0,1.25-.21Z"/><path class="cls-8" d="M101.79,232.44a4.79,4.79,0,0,0,.86-.27c.42-.15.8-.33,1.22-.51a3.7,3.7,0,0,0,.59-.3,1.8,1.8,0,0,0-.57-1.07,1.73,1.73,0,0,0-1.22-.48,1.76,1.76,0,0,0-1.72,1.31,1.39,1.39,0,0,0-.09.51,2.1,2.1,0,0,0,.27,1Z"/><path class="cls-8" d="M108.81,228.13a9,9,0,0,1-1.19,1.19c-.36.3-.74.59-1.13.86a3.6,3.6,0,0,0-.42.3,1.78,1.78,0,0,1-.54-1,1.45,1.45,0,0,1,0-.36,1.82,1.82,0,0,1,1.81-1.81A1.78,1.78,0,0,1,108.81,228.13Z"/><path class="cls-8" d="M100,232.17a1.6,1.6,0,0,1-.12.65,6.06,6.06,0,0,1-1,.09h-.3a5.07,5.07,0,0,1-2.17-.51.58.58,0,0,1,0-.24,1.8,1.8,0,0,1,1.81-1.81,1.78,1.78,0,0,1,1.49.77A1.8,1.8,0,0,1,100,232.17Z"/><path class="cls-8" d="M106.49,230.18a3.6,3.6,0,0,0-.42.3h0a7.47,7.47,0,0,1-1.34.77c-.09,0-.15.09-.24.12a3.7,3.7,0,0,1-.59.3,1.76,1.76,0,0,1-.15-.68,1.38,1.38,0,0,1,.18-.68,1.47,1.47,0,0,1,1.31-.8,1.11,1.11,0,0,1,.33,0A1.64,1.64,0,0,1,106.49,230.18Z"/><path class="cls-9" d="M138.06,218.28c-1.35-3.93,1.26-6.59,2.58-5.28S138.06,218.28,138.06,218.28Z"/><path d="M142.67,220.41a2.22,2.22,0,0,1-1.19,1,5.12,5.12,0,0,1-.91.3c-.26.06-.53.11-.8.15l-.29,0h0a4.26,4.26,0,0,1-.88,0h-.15a2.11,2.11,0,0,1-.38,0c-.26,0-.5,0-.75-.06a2.73,2.73,0,0,1-.51-.09l-.38-.08a5.67,5.67,0,0,1-.69-.22,3.46,3.46,0,0,1-.54-.22l-.15-.08a2.89,2.89,0,0,1-1-.82,2.07,2.07,0,0,1-.34-1.64,1.86,1.86,0,0,1,.81-1.17,3.53,3.53,0,0,1,1.29-.56,4.56,4.56,0,0,1,1-.15,6,6,0,0,1,1.12,0,8.53,8.53,0,0,1,1.23.13c.35.06.7.15,1,.24C142.07,217.74,143.44,218.9,142.67,220.41Z"/><path class="cls-8" d="M136.46,221.67a5.72,5.72,0,0,1-1.41-.52,8.29,8.29,0,0,1-.57-3.12,4.38,4.38,0,0,1,0-.52,3.65,3.65,0,0,1,1.3-.56,2.66,2.66,0,0,0-.26,1.11A7.66,7.66,0,0,0,136.46,221.67Z"/><path class="cls-8" d="M138.58,221.89a9.69,9.69,0,0,1-1.27-.06h0a9,9,0,0,1-.5-5,8.74,8.74,0,0,1,1.1,0A7.67,7.67,0,0,0,138.58,221.89Z"/><path class="cls-8" d="M140.57,221.67a7.82,7.82,0,0,1-1.11.18,9.1,9.1,0,0,1-.33-4.93,7.87,7.87,0,0,1,1.05.25A8.09,8.09,0,0,0,140.57,221.67Z"/><circle class="cls-1" cx="141.7" cy="219.08" r="0.73" transform="translate(-117.82 245.94) rotate(-63.02)"/><path class="cls-1" d="M141.86,219.75l-.08,0a.2.2,0,0,1-.08-.25.18.18,0,0,1,.16-.1c.17.07.21.18.16.27A.18.18,0,0,1,141.86,219.75Z"/><path d="M141.86,219.2a.37.37,0,1,0,.17,0,.36.36,0,0,0-.17,0Z"/><path class="cls-9" d="M137.87,218.34c-4-1-4.86-4.62-3-5S137.87,218.34,137.87,218.34Z"/><path class="cls-8" d="M136.79,221.74a.88.88,0,0,0-.08-.88.92.92,0,0,0-.29-.25.91.91,0,0,0-.36-.09.85.85,0,0,0-.79.46,1.31,1.31,0,0,0-.09.24,3.46,3.46,0,0,0,.54.22,5.67,5.67,0,0,0,.69.22Z"/><path class="cls-8" d="M136.79,221.74a2.74,2.74,0,0,0,.51.09c.25,0,.49,0,.75.06a2.11,2.11,0,0,0,.38,0,1,1,0,0,0,0-.69,1,1,0,0,0-.5-.56,1,1,0,0,0-1.22.22.79.79,0,0,0-.18.23,1.2,1.2,0,0,0-.12.57Z"/><path class="cls-8" d="M141.48,221.37a5.12,5.12,0,0,1-.91.3c-.26.06-.53.11-.8.15l-.29,0a1,1,0,0,1,0-.62.83.83,0,0,1,.08-.19,1,1,0,0,1,1.39-.45A1,1,0,0,1,141.48,221.37Z"/><path class="cls-8" d="M136,221.14a.91.91,0,0,1-.23.3,3.46,3.46,0,0,1-.54-.22l-.15-.08a2.89,2.89,0,0,1-1-.82.33.33,0,0,1,0-.13,1,1,0,0,1,1.39-.45,1,1,0,0,1,.56.78A1,1,0,0,1,136,221.14Z"/><path class="cls-8" d="M139.77,221.81l-.29,0h0a4.26,4.26,0,0,1-.88,0h-.15a2.11,2.11,0,0,1-.38,0,1,1,0,0,1,.1-.39.79.79,0,0,1,.27-.3.84.84,0,0,1,.87-.07.64.64,0,0,1,.16.1A.93.93,0,0,1,139.77,221.81Z"/><path class="cls-9" d="M188.62,227.75c-1.35-3.93,1.26-6.59,2.58-5.28S188.62,227.75,188.62,227.75Z"/><path d="M193.23,229.88a2.22,2.22,0,0,1-1.19,1,5.12,5.12,0,0,1-.91.3c-.26.06-.53.11-.8.15l-.29,0h0a4.26,4.26,0,0,1-.88,0H189a2.11,2.11,0,0,1-.38,0c-.26,0-.5,0-.75-.06a2.73,2.73,0,0,1-.51-.09l-.38-.08a5.67,5.67,0,0,1-.69-.22,3.46,3.46,0,0,1-.54-.22l-.15-.08a2.89,2.89,0,0,1-1-.82,2.07,2.07,0,0,1-.34-1.64,1.86,1.86,0,0,1,.81-1.17,3.53,3.53,0,0,1,1.29-.56,4.56,4.56,0,0,1,1-.15,6,6,0,0,1,1.12,0,8.53,8.53,0,0,1,1.23.13c.35.06.7.15,1,.24C192.63,227.21,194,228.36,193.23,229.88Z"/><path class="cls-8" d="M187,231.14a5.72,5.72,0,0,1-1.41-.52,8.29,8.29,0,0,1-.57-3.12,4.38,4.38,0,0,1,0-.52,3.65,3.65,0,0,1,1.3-.56,2.66,2.66,0,0,0-.26,1.11A7.66,7.66,0,0,0,187,231.14Z"/><path class="cls-8" d="M189.14,231.36a9.69,9.69,0,0,1-1.27-.06h0a9,9,0,0,1-.5-5,8.74,8.74,0,0,1,1.1,0A7.67,7.67,0,0,0,189.14,231.36Z"/><path class="cls-8" d="M191.13,231.14a7.82,7.82,0,0,1-1.11.18,9.1,9.1,0,0,1-.33-4.93,7.87,7.87,0,0,1,1.05.25A8.09,8.09,0,0,0,191.13,231.14Z"/><circle class="cls-1" cx="192.26" cy="228.54" r="0.73" transform="translate(-98.64 296.17) rotate(-63.02)"/><path class="cls-1" d="M192.42,229.22l-.08,0a.18.18,0,0,1,.08-.34c.17.07.21.18.16.26A.19.19,0,0,1,192.42,229.22Z"/><path d="M192.42,228.67a.37.37,0,1,0,.17,0,.36.36,0,0,0-.17,0Z"/><path class="cls-9" d="M188.43,227.81c-4-1-4.86-4.62-3-5S188.43,227.81,188.43,227.81Z"/><path class="cls-8" d="M187.36,231.21a.88.88,0,0,0-.08-.88.92.92,0,0,0-.29-.25.91.91,0,0,0-.36-.09.85.85,0,0,0-.79.46,1.31,1.31,0,0,0-.09.24,3.46,3.46,0,0,0,.54.22,5.67,5.67,0,0,0,.69.22Z"/><path class="cls-8" d="M187.36,231.21a2.74,2.74,0,0,0,.51.09c.25,0,.49,0,.75.06a2.11,2.11,0,0,0,.38,0,1,1,0,0,0,0-.69,1,1,0,0,0-.5-.56,1,1,0,0,0-1.22.22.79.79,0,0,0-.18.23,1.2,1.2,0,0,0-.12.57Z"/><path class="cls-8" d="M192,230.83a5.12,5.12,0,0,1-.91.3c-.26.06-.53.11-.8.15l-.29,0a1,1,0,0,1,0-.62.83.83,0,0,1,.08-.19,1,1,0,0,1,1.39-.45A1,1,0,0,1,192,230.83Z"/><path class="cls-8" d="M186.52,230.61a.91.91,0,0,1-.23.3,3.46,3.46,0,0,1-.54-.22l-.15-.08a2.89,2.89,0,0,1-1-.82.33.33,0,0,1,0-.13,1,1,0,0,1,1.39-.45,1,1,0,0,1,.56.78A1,1,0,0,1,186.52,230.61Z"/><path class="cls-8" d="M190.33,231.28l-.29,0h0a4.26,4.26,0,0,1-.88,0H189a2.11,2.11,0,0,1-.38,0,1,1,0,0,1,.1-.39.79.79,0,0,1,.27-.3.84.84,0,0,1,.87-.07.64.64,0,0,1,.16.1A.93.93,0,0,1,190.33,231.28Z"/><path class="cls-11" d="M238.69,204.51V246l10.1-3.77a142,142,0,0,0,29.63-50.67.43.43,0,0,0,.11-.3Z"/><path class="cls-11" d="M234.92,166.81l1.36,39,2.41-.83,39.74-13.46a.43.43,0,0,0,.11-.3,142.15,142.15,0,0,0,7.16-39.85c0-1,.08-1.92.08-2.9L236.2,166.35Z"/><path class="cls-11" d="M283.42,124.37c-.41-2.22-.89-4.41-1.42-6.6q-.63-2.6-1.35-5.14l-45.72,16.48.15,3.92.31,9,.82,24.3.07,1.77,49.43-16.74c0-1,.07-1.92.07-2.9,0-.29,0-.58,0-.87"/><path class="cls-4" d="M209.12,233.57c0-14-15.67-19-15.67-6.44"/><path class="cls-11" d="M283.94,129.11l-48.55,12.95-8,2.13L163.3,57.48,242,50q4.3,3.93,8.25,8.26a134.69,134.69,0,0,1,30.37,54.36q.72,2.55,1.35,5.14c.53,2.19,1,4.38,1.42,6.6C283.6,126.1,283.76,127.74,283.94,129.11Z"/><path class="cls-12" d="M285.82,149.84c0,.75,0,1.54,0,2.29,0,.93,0,1.82-.07,2.75a134.69,134.69,0,0,1-6.78,37.75.42.42,0,0,1-.11.29A135.75,135.75,0,1,1,242,50q4.3,3.93,8.25,8.26a134.69,134.69,0,0,1,30.37,54.36q.72,2.55,1.35,5.14c.53,2.19,1,4.38,1.42,6.6s.76,4.27,1,6.44a131.11,131.11,0,0,1,1.34,16.81C285.81,148.36,285.82,149.1,285.82,149.84Z"/><path class="cls-9" d="M204,225.94c-3-2.89-1.87-6.44-.1-5.88S204,225.94,204,225.94Z"/><path d="M209.12,225.75a2.22,2.22,0,0,1-.63,1.39,5.12,5.12,0,0,1-.68.68c-.2.17-.42.34-.64.49l-.24.17h0a4.26,4.26,0,0,1-.76.44L206,229a2.11,2.11,0,0,1-.34.17c-.24.1-.46.2-.7.29a2.73,2.73,0,0,1-.49.15l-.37.1a5.67,5.67,0,0,1-.71.12,3.46,3.46,0,0,1-.58.05h-.17a2.89,2.89,0,0,1-1.24-.29,2.07,2.07,0,0,1-1.05-1.31,1.86,1.86,0,0,1,.19-1.41,3.53,3.53,0,0,1,.9-1.09,4.56,4.56,0,0,1,.8-.58,6,6,0,0,1,1-.53,8.53,8.53,0,0,1,1.15-.44c.34-.1.7-.19,1-.25C207.37,223.64,209.12,224,209.12,225.75Z"/><path class="cls-8" d="M204.16,229.69a5.72,5.72,0,0,1-1.5.18,8.29,8.29,0,0,1-1.93-2.52,4.38,4.38,0,0,1-.19-.48,3.65,3.65,0,0,1,.9-1.09,2.66,2.66,0,0,0,.28,1.11A7.66,7.66,0,0,0,204.16,229.69Z"/><path class="cls-8" d="M206.14,228.93a9.69,9.69,0,0,1-1.16.52h0a9,9,0,0,1-2.72-4.25,8.74,8.74,0,0,1,1-.53A7.67,7.67,0,0,0,206.14,228.93Z"/><path class="cls-8" d="M207.82,227.82a7.82,7.82,0,0,1-.9.66,9.1,9.1,0,0,1-2.53-4.25,7.87,7.87,0,0,1,1.05-.26A8.09,8.09,0,0,0,207.82,227.82Z"/><circle class="cls-1" cx="207.65" cy="225" r="0.73"/><circle class="cls-1" cx="208.01" cy="225.36" r="0.18"/><path d="M208,225a.36.36,0,1,0,.36.36A.36.36,0,0,0,208,225Z"/><path class="cls-9" d="M203.9,226.08c-4.05.95-6.43-1.92-5-3.1S203.9,226.08,203.9,226.08Z"/><path class="cls-8" d="M204.49,229.6a.88.88,0,0,0-.48-.75.92.92,0,0,0-.37-.08.91.91,0,0,0-.36.08.85.85,0,0,0-.49.76,1.31,1.31,0,0,0,0,.25,3.46,3.46,0,0,0,.58-.05,5.67,5.67,0,0,0,.71-.12Z"/><path class="cls-8" d="M204.49,229.6a2.74,2.74,0,0,0,.49-.15c.24-.08.46-.19.7-.29A2.11,2.11,0,0,0,206,229a1,1,0,0,0-.32-.61,1,1,0,0,0-.7-.27,1,1,0,0,0-1,.75.79.79,0,0,0-.05.29,1.2,1.2,0,0,0,.15.56Z"/><path class="cls-8" d="M208.49,227.14a5.12,5.12,0,0,1-.68.68c-.2.17-.42.34-.64.49l-.24.17a1,1,0,0,1-.31-.54.83.83,0,0,1,0-.2,1,1,0,0,1,1-1A1,1,0,0,1,208.49,227.14Z"/><path class="cls-8" d="M203.47,229.45a.91.91,0,0,1-.07.37,3.46,3.46,0,0,1-.58.05h-.17a2.89,2.89,0,0,1-1.24-.29.33.33,0,0,1,0-.14,1,1,0,0,1,1-1,1,1,0,0,1,.85.44A1,1,0,0,1,203.47,229.45Z"/><path class="cls-8" d="M207.17,228.31l-.24.17h0a4.26,4.26,0,0,1-.76.44L206,229a2.11,2.11,0,0,1-.34.17,1,1,0,0,1-.08-.39.79.79,0,0,1,.1-.39.84.84,0,0,1,.75-.46.64.64,0,0,1,.19,0A.93.93,0,0,1,207.17,228.31Z"/></svg>