<svg id="Calque_1" data-name="Calque 1" xmlns="http://www.w3.org/2000/svg" viewBox="0 0 300 300"><defs><style>.cls-1,.cls-5{fill:#fff;}.cls-2{fill:#5b5a59;}.cls-2,.cls-3,.cls-4,.cls-5,.cls-7,.cls-8,.cls-9{stroke:#000;stroke-miterlimit:10;}.cls-2,.cls-3,.cls-4,.cls-8{stroke-width:11.31px;}.cls-3{fill:#ccc;}.cls-5{stroke-width:4.19px;}.cls-6{fill:gold;}.cls-7,.cls-8,.cls-9{fill:none;}.cls-7{stroke-width:3.77px;stroke-dasharray:3.77 7.54;}.cls-9{stroke-width:21px;}</style></defs><title>pastillePlan de travail 6</title><path class="cls-1" d="M286,149.84A135.73,135.73,0,0,1,21.57,192.91a.41.41,0,0,1-.11-.29,134.66,134.66,0,0,1-6.79-37.75c0-.93-.07-1.82-.07-2.75,0-.75,0-1.54,0-2.29a133.81,133.81,0,0,1,1.36-19,121.63,121.63,0,0,1,2.46-13A135.73,135.73,0,0,1,286,149.84Z"/><path class="cls-1" d="M286,149.84A135.73,135.73,0,0,1,21.57,192.91a.41.41,0,0,1-.11-.29,134.66,134.66,0,0,1-6.79-37.75c0-.93-.07-1.82-.07-2.75,0-.75,0-1.54,0-2.29a133.81,133.81,0,0,1,1.36-19,121.63,121.63,0,0,1,2.46-13A135.73,135.73,0,0,1,286,149.84Z"/><polygon class="cls-2" points="65.46 132.88 182.33 95.17 182.33 129.1 65.46 166.81 65.46 132.88"/><polygon class="cls-2" points="65.46 166.81 182.33 129.1 182.33 166.81 65.46 204.5 65.46 166.81"/><polygon class="cls-2" points="65.46 204.5 182.33 166.81 182.33 204.5 65.46 245.97 65.46 204.5"/><polygon class="cls-2" points="69.23 129.1 133.32 61.24 186.1 95.17 69.23 129.1"/><path class="cls-3" d="M61.69,204.51V246l-10.1-3.77A142,142,0,0,1,22,191.54a.43.43,0,0,1-.11-.3Z"/><path class="cls-3" d="M65.46,166.81l-1.36,39L61.69,205,22,191.54a.43.43,0,0,1-.11-.3,142.15,142.15,0,0,1-7.16-39.85c0-1-.08-1.92-.08-2.9l49.58,17.87Z"/><path class="cls-3" d="M65.46,129.11,65.31,133l-1.13,33.33-.08,1.77L14.68,151.39c0-1-.08-1.92-.08-2.9,0-.79,0-1.62,0-2.41A141.25,141.25,0,0,1,16,126a128.38,128.38,0,0,1,2.6-13.76Z"/><path class="cls-4" d="M91.26,233.57c0-14,15.67-19,15.67-6.44"/><path class="cls-4" d="M122.55,221.47c0-9.43,14.54-20.74,14.69-3.18"/><path class="cls-4" d="M152.71,213.93c-.54-17,11.06-19.56,14.69-7"/><path class="cls-5" d="M244.66,170.43c-9-8.69-5.62-19.36-.29-17.68S244.66,170.43,244.66,170.43Z"/><path d="M259.95,169.84c0,2-1.58,4.23-3.95,6.25a23.49,23.49,0,0,1-2.72,2A21.24,21.24,0,0,1,251,179.4h0a29.14,29.14,0,0,1-3.49,1.56h0a21,21,0,0,1-2.46.75,17.2,17.2,0,0,1-4.5.53c-3.27-.09-5.92-1.47-6.89-4.8a5.46,5.46,0,0,1,.53-4.21,11,11,0,0,1,2.72-3.27v0a18.32,18.32,0,0,1,2.41-1.73,26.26,26.26,0,0,1,2.92-1.58,27.38,27.38,0,0,1,3.47-1.29,23.64,23.64,0,0,1,3.16-.77C254.66,163.5,259.95,164.73,259.95,169.84Z"/><path class="cls-6" d="M245,181.7a17.2,17.2,0,0,1-4.5.53,24.92,24.92,0,0,1-5.79-7.57,13.18,13.18,0,0,1-.57-1.45,11,11,0,0,1,2.72-3.27,8,8,0,0,0,.83,3.33A23,23,0,0,0,245,181.7Z"/><path class="cls-6" d="M251,179.4a29.14,29.14,0,0,1-3.49,1.56h0a26.92,26.92,0,0,1-8.18-12.76,26.26,26.26,0,0,1,2.92-1.58C243.32,171,246.72,176.79,251,179.4Z"/><path class="cls-6" d="M256,176.09a23.49,23.49,0,0,1-2.72,2,27.36,27.36,0,0,1-7.61-12.76,23.64,23.64,0,0,1,3.16-.77A24.31,24.31,0,0,0,256,176.09Z"/><circle class="cls-1" cx="255.49" cy="167.6" r="2.19"/><circle class="cls-1" cx="256.59" cy="168.7" r="0.55"/><path d="M256.59,167.6a1.1,1.1,0,1,0,1.1,1.1,1.1,1.1,0,0,0-1.1-1.1Z"/><path class="cls-5" d="M244.24,170.85c-12.17,2.84-19.32-5.76-15-9.33S244.24,170.85,244.24,170.85Z"/><path class="cls-7" d="M125.78,223.36c3.77,11.31,18.85,30.16,30.16,33.93s11.31-26.39,37.7-22.62c12.1,1.73,40.78-7.66,41.47-22.62.56-12.13-18.85-18.85-3.77-30.16"/><polygon points="93.74 104.6 169.32 80.22 186.1 91.41 73 129.1 93.74 104.6"/><polyline class="cls-8" points="140.86 57.48 197.41 98.94 186.1 98.94"/><path class="cls-3" d="M137.09,57.48,73,144.19,16.45,129.11c.6-4.67,1.06-12.37,2.15-16.89A142.25,142.25,0,0,1,52.08,49.41Z"/><path class="cls-9" d="M286,149.84A135.73,135.73,0,0,1,21.57,192.91a.41.41,0,0,1-.11-.29,134.66,134.66,0,0,1-6.79-37.75c0-.93-.07-1.82-.07-2.75,0-.75,0-1.54,0-2.29a133.81,133.81,0,0,1,1.36-19,121.63,121.63,0,0,1,2.46-13A135.73,135.73,0,0,1,286,149.84Z"/><polygon class="cls-4" points="57.92 249.75 186.1 204.5 201.18 208.28 73 261.41 57.92 249.75"/></svg>