<svg id="Calque_1" data-name="Calque 1" xmlns="http://www.w3.org/2000/svg" viewBox="0 0 80 80"><defs><style>.cls-1,.cls-3{fill:#ccc;}.cls-1,.cls-2,.cls-3,.cls-4,.cls-7,.cls-8{stroke:#000;stroke-miterlimit:10;}.cls-1,.cls-2{stroke-width:2.22px;}.cls-2,.cls-5{fill:gold;}.cls-3{stroke-width:2px;}.cls-4,.cls-6{fill:#fff;}.cls-4{stroke-width:1.27px;}.cls-7,.cls-8{fill:none;}.cls-7{stroke-dasharray:1 2;}.cls-8{stroke-width:6px;}</style></defs><title>etapePlan de travail 1 copie 2</title><path d="M46.74,75.37c.63-7.34,1.93-25.07-.28-24.63A42,42,0,0,0,42,51.85C46.14,56,44.77,69.22,43.78,75.8Z"/><path class="cls-1" d="M48.13,49.08c-8.08,0-8.57-8.34-4.44-11.09,3.33-2.22,12.2-4.44,14.42-1.11S52.57,49.08,48.13,49.08Z"/><path class="cls-1" d="M50,50.57c-4-7-10.71-9.26-16.25-4.82-2.74,2.19-7,9.47-2.56,10.43S50,50.57,50,50.57Z"/><path class="cls-1" d="M40.06,54.27c-8.57,1.47-16.89,5.35-9.12,8.68,4.08,1.75,13.66-.38,13.87-3.88S43.15,53.74,40.06,54.27Z"/><path class="cls-2" d="M51.46,49.08c-6.28,0,7.43-13.84,11.09-11.09,4.44,3.33-1.11,14.42-4.44,14.42S52.57,49.08,51.46,49.08Z"/><path class="cls-2" d="M47,51.3c-2.41,0-7.57,7.18-3.33,8.87,5.55,2.22,15.53-6.66,14.42-10S49.08,51.3,47,51.3Z"/><path d="M37.59,56.29C35.16,55.8,35.86,48.72,42,45.2c7.77-4.44,11.09,0,11.09,2.22C53.12,50.74,43.14,57.4,37.59,56.29Z"/><path d="M65,65.89c0-9.94-.66-26-5.6-28.11a41,41,0,0,1,3.7-2.69C64.77,34,66.75,51.93,67.8,62.88A36,36,0,0,1,65,65.89Z"/><path class="cls-3" d="M59.85,33.94C53.09,36.66,49.6,34.84,50,29c.28-4.19,10-13,14.08-8.63C66.54,23,63.56,32.44,59.85,33.94Z"/><path class="cls-1" d="M66.3,33.62c-6.39-5-14.13-4.6-17.61,1.59-1.72,3.06-2.22,13.31,4.44,12.2C57.63,46.66,66.3,33.62,66.3,33.62Z"/><path class="cls-1" d="M59,38c-7.4,4.56-11.44,11-7,11s13.8-2.25,12.69-5.57S61.67,36.35,59,38Z"/><path class="cls-3" d="M62.63,32.81C57.38,34.93,64,18.94,68,20c4.83,1.29,5.78,11.88,3,13S63.56,32.44,62.63,32.81Z"/><path class="cls-1" d="M64.21,33C62.51,34.7,63,45.21,67.54,45.2c6,0,10-12.86,7.77-15.53S68.65,28.56,64.21,33Z"/><path d="M57,43.55c-2.47-.18-4.43-6.37,0-11.95,5.54-7,10.89-6.21,11.72-4.15C69.89,30.53,64.21,44.09,57,43.55Z"/><path d="M55.82,72.35c-1,.49-2.06.94-3.12,1.34,1.43-4.48,2.28-10-.69-13a39.75,39.75,0,0,1,4.44-1.11C58.11,59.28,57,66.5,55.82,72.35Z"/><path class="cls-4" d="M22,31.82c-2.71-2.63-1.7-5.85-.09-5.34S22,31.82,22,31.82Z"/><path d="M26.57,31.65a2.85,2.85,0,0,1-1.19,1.89,7.1,7.1,0,0,1-.82.6,6.42,6.42,0,0,1-.69.4h0a8.8,8.8,0,0,1-1.05.47h0a6.33,6.33,0,0,1-.74.23,5.2,5.2,0,0,1-1.36.16,2,2,0,0,1-2.08-1.45,1.65,1.65,0,0,1,.16-1.27,3.31,3.31,0,0,1,.82-1h0a5.54,5.54,0,0,1,.73-.52,7.93,7.93,0,0,1,.88-.48,8.27,8.27,0,0,1,1-.39,7.14,7.14,0,0,1,1-.23C25,29.73,26.57,30.1,26.57,31.65Z"/><path class="cls-5" d="M22.06,35.23a5.2,5.2,0,0,1-1.36.16A7.53,7.53,0,0,1,19,33.1a4,4,0,0,1-.17-.44,3.31,3.31,0,0,1,.82-1,2.42,2.42,0,0,0,.25,1A7,7,0,0,0,22.06,35.23Z"/><path class="cls-5" d="M23.86,34.54a8.8,8.8,0,0,1-1.05.47h0a8.13,8.13,0,0,1-2.47-3.86,7.93,7.93,0,0,1,.88-.48A7,7,0,0,0,23.86,34.54Z"/><path class="cls-5" d="M25.38,33.53a7.1,7.1,0,0,1-.82.6,8.27,8.27,0,0,1-2.3-3.86,7.14,7.14,0,0,1,1-.23A7.34,7.34,0,0,0,25.38,33.53Z"/><circle class="cls-6" cx="25.23" cy="30.97" r="0.66"/><circle class="cls-6" cx="25.56" cy="31.3" r="0.17"/><path d="M25.56,31a.33.33,0,1,0,.33.33.33.33,0,0,0-.33-.33Z"/><path class="cls-4" d="M21.83,32c-3.68.86-5.84-1.74-4.54-2.82S21.83,32,21.83,32Z"/><path class="cls-7" d="M7.35,55.19c3.84-.81,8.59-2.91,9.15-5.69,1-5-4-13,1-15"/><path class="cls-1" d="M58.11,58c-8.08,0-8.57-8.34-4.44-11.09,3.33-2.22,12.2-4.44,14.42-1.11S62.55,58,58.11,58Z"/><path class="cls-1" d="M59.94,59.44c-4-7-10.71-9.26-16.25-4.82-2.74,2.19-7,9.47-2.56,10.43S59.94,59.44,59.94,59.44Z"/><path class="cls-1" d="M50,63.14c-5.8.91-11.85,1.85-9.12,5.35,3.88,5,13.66,2.95,13.87-.55S53.14,62.66,50,63.14Z"/><path class="cls-1" d="M61.44,58c-6.28,0,7.43-13.84,11.09-11.09C77,50.19,71.42,61.28,68.1,61.28S62.55,58,61.44,58Z"/><path class="cls-1" d="M57,60.17c-2.41,0-7.57,7.18-3.33,8.87,5.55,2.22,15.53-6.66,14.42-10S59.07,60.17,57,60.17Z"/><path d="M47.57,65.16c-2.43-.49-1.73-7.57,4.44-11.09,7.77-4.44,11.09,0,11.09,2.22C63.1,59.62,53.12,66.27,47.57,65.16Z"/><path class="cls-8" d="M76,40A36,36,0,0,1,65,65.89a36.25,36.25,0,0,1-9.2,6.46c-1,.49-2.06.94-3.12,1.34a34.81,34.81,0,0,1-6,1.68h0l-.15,0c-.9.17-1.82.31-2.75.4h0A36,36,0,0,1,7.35,55.19a37.21,37.21,0,0,1-1.49-3.76.11.11,0,0,1,0-.08,35.65,35.65,0,0,1-1.8-10c0-.25,0-.49,0-.73S4,40.2,4,40a35.11,35.11,0,0,1,.36-5A33.48,33.48,0,0,1,5,31.49,36,36,0,0,1,76,40Z"/></svg>