<svg id="Calque_1" data-name="Calque 1" xmlns="http://www.w3.org/2000/svg" viewBox="0 0 80 80"><defs><style>.cls-1,.cls-5{fill:none;}.cls-1,.cls-2,.cls-5,.cls-6{stroke:#000;stroke-miterlimit:10;}.cls-1{stroke-width:6px;}.cls-2,.cls-4{fill:#fff;}.cls-2{stroke-width:1.25px;}.cls-3{fill:gold;}.cls-5{stroke-dasharray:1 2;}.cls-6{fill:#ccc;stroke-width:2.66px;}</style></defs><title>etapePlan de travail 1 copie 4</title><path class="cls-1" d="M76,40A36,36,0,0,1,65,65.89a36.25,36.25,0,0,1-9.2,6.46c-1,.49-2.06.94-3.12,1.34a34.81,34.81,0,0,1-6,1.68h0l-.15,0c-.9.17-1.82.31-2.75.4h0l-.31,0c-.58.06-1.16.1-1.75.13S40.58,76,40,76A36,36,0,0,1,7.35,55.19a37.23,37.23,0,0,1-1.49-3.76.11.11,0,0,1,0-.08,35.65,35.65,0,0,1-1.8-10c0-.25,0-.49,0-.73S4,40.2,4,40a35.11,35.11,0,0,1,.36-5A33.48,33.48,0,0,1,5,31.49,36,36,0,0,1,76,40Z"/><path class="cls-2" d="M53.64,22.06C51,19.47,52,16.3,53.55,16.8S53.64,22.06,53.64,22.06Z"/><path d="M58.19,21.89A2.81,2.81,0,0,1,57,23.75a7,7,0,0,1-.81.59,6.32,6.32,0,0,1-.68.39h0a8.67,8.67,0,0,1-1,.46h0a6.24,6.24,0,0,1-.73.22,5.12,5.12,0,0,1-1.34.16,2,2,0,0,1-2.05-1.43,1.62,1.62,0,0,1,.16-1.25,3.26,3.26,0,0,1,.81-1h0A5.46,5.46,0,0,1,52,21.4a7.82,7.82,0,0,1,.87-.47,8.15,8.15,0,0,1,1-.39,7,7,0,0,1,.94-.23C56.62,20,58.19,20.36,58.19,21.89Z"/><path class="cls-3" d="M53.74,25.42a5.12,5.12,0,0,1-1.34.16,7.42,7.42,0,0,1-1.72-2.25,3.92,3.92,0,0,1-.17-.43,3.26,3.26,0,0,1,.81-1,2.38,2.38,0,0,0,.25,1A6.86,6.86,0,0,0,53.74,25.42Z"/><path class="cls-3" d="M55.52,24.73a8.67,8.67,0,0,1-1,.46h0A8,8,0,0,1,52,21.4a7.82,7.82,0,0,1,.87-.47A6.87,6.87,0,0,0,55.52,24.73Z"/><path class="cls-3" d="M57,23.75a7,7,0,0,1-.81.59,8.15,8.15,0,0,1-2.27-3.8,7,7,0,0,1,.94-.23A7.24,7.24,0,0,0,57,23.75Z"/><circle class="cls-4" cx="56.87" cy="21.22" r="0.65"/><circle class="cls-4" cx="57.02" cy="20.93" r="0.16"/><path d="M57,20.6a.33.33,0,1,0,.33.33A.33.33,0,0,0,57,20.6Z"/><path class="cls-2" d="M53.52,22.19c-3.62.85-5.75-1.71-4.47-2.78S53.52,22.19,53.52,22.19Z"/><path class="cls-5" d="M38.7,34.18c-2.57-.23-10.84-7.71-6.54-10.76,6-4.23,9.17,7.08,17.13,1.78"/><path class="cls-5" d="M4.45,34.38c3.21-1.87,6.24-3.68,8.68-3.68,5.95,0,9.5,2.05,11.51,5.63"/><path d="M44.5,60.79c-.34,2-.57,4.74-.74,7.56-.11,1.92-.18,3.89-.24,5.69,0,.62,0,1.22,0,1.79-.58.06-1.16.1-1.75.13,0-.4,0-.81,0-1.24,0-1.3.07-2.71.07-4.14a45.78,45.78,0,0,0-.71-9.34C40.61,59,44.83,58.85,44.5,60.79Z"/><path class="cls-6" d="M43.82,54.62c-8.75-4.16-6.21-16.52-.53-18.29,9.68-3,19.36,3,20.62,10.86C64.66,51.92,48.63,56.9,43.82,54.62Z"/><path class="cls-6" d="M43.82,54.43c2.42-12-4.55-20.25-15.5-17.6-7.52,1.83-9.48,6-6.44,8.55C26,48.83,43.82,54.43,43.82,54.43Z"/><path class="cls-6" d="M34,51.48c-6.75-2-10.81-10.91-18.51-6.59-12.36,6.93,13.64,16.7,15.67,13S37.57,52.55,34,51.48Z"/><path class="cls-6" d="M38.79,56c-6.75-2-25.72-5.78-24.49-.6,1.66,7,19.66,13.1,32.12,3.26C49.73,56,42.4,57,38.79,56Z"/><path class="cls-6" d="M48.53,55.49C41.72,52.26,62,41.2,66.86,43.66c5.94,3-1.44,14.24-6.85,10.63C56.69,52.07,49.73,56.06,48.53,55.49Z"/><path class="cls-6" d="M42.7,53.59c-2.62-1.24-10,5.85-5.28,8.71,8.8,5.39,33.83-6,27.64-9.33C59.93,50.22,44.93,54.66,42.7,53.59Z"/><path d="M37.95,58.31c-3.18,0-8.93-.31-11.71-2.37a2.55,2.55,0,0,1-1.08-2.84c1-3.4,8.89-6.48,15.31-7,1-.08,2-.11,2.93-.11,7.31,0,12,2.2,13.44,4.37A2.69,2.69,0,0,1,57.16,53C55.46,56.87,44.48,58.31,37.95,58.31Z"/><path d="M43.41,47c8.91,0,13.81,3.36,12.84,5.58-1.25,2.84-10.34,4.7-18.29,4.7-4.74,0-9.08-.66-11.11-2.17-3.45-2.55,5.22-7.36,13.72-8Q42,47,43.41,47m0-2h0c-1,0-2,0-3,.12-6.9.52-15.06,3.73-16.2,7.68a3.55,3.55,0,0,0,1.44,3.92c2.86,2.12,8.27,2.56,12.31,2.56,6.06,0,18.07-1.23,20.12-5.9a3.66,3.66,0,0,0-.4-3.55C55.76,46.92,50.16,45,43.41,45Z"/><circle class="cls-3" cx="32.89" cy="52.21" r="0.38"/><circle class="cls-3" cx="34.39" cy="51.48" r="0.42"/><circle class="cls-3" cx="36.38" cy="49.79" r="0.33"/><circle class="cls-3" cx="40.77" cy="50.23" r="0.44"/><circle class="cls-3" cx="39.22" cy="48.89" r="0.44"/><circle class="cls-3" cx="37.82" cy="50.02" r="0.23"/><circle class="cls-3" cx="33.32" cy="50.54" r="0.43"/><circle class="cls-3" cx="37.6" cy="51.71" r="0.23"/><circle class="cls-3" cx="36.1" cy="53.5" r="0.28"/><circle class="cls-3" cx="37.88" cy="54.07" r="0.29"/><circle class="cls-3" cx="33.74" cy="53.55" r="0.33"/><circle class="cls-3" cx="30.2" cy="51.44" r="0.38"/><circle class="cls-3" cx="40.67" cy="51.98" r="0.54"/><circle class="cls-3" cx="43.1" cy="49.31" r="0.53"/><circle class="cls-3" cx="41.56" cy="48.5" r="0.35"/><circle class="cls-3" cx="45.24" cy="49.24" r="0.46"/><circle class="cls-3" cx="43.97" cy="47.91" r="0.35"/><circle class="cls-3" cx="34.5" cy="49.1" r="0.31"/><circle class="cls-3" cx="37.42" cy="48.61" r="0.46"/><circle class="cls-3" cx="39.13" cy="51.4" r="0.34"/><circle class="cls-3" cx="40.12" cy="55.44" r="0.65"/><circle class="cls-3" cx="41.37" cy="53.34" r="0.35"/><circle class="cls-3" cx="42.8" cy="51.21" r="0.23"/><circle class="cls-3" cx="44.14" cy="51.23" r="0.17"/><circle class="cls-3" cx="34.57" cy="54.97" r="0.18"/><circle class="cls-3" cx="31.34" cy="53.49" r="0.39"/><circle class="cls-3" cx="44.09" cy="53.69" r="0.47"/><circle class="cls-3" cx="46.06" cy="51.85" r="0.36"/><circle class="cls-3" cx="46.98" cy="50.21" r="0.37"/><circle class="cls-3" cx="46.62" cy="48.3" r="0.56"/><circle class="cls-3" cx="49.6" cy="49.27" r="0.66"/><circle class="cls-3" cx="39.8" cy="47.9" r="0.33"/><circle class="cls-3" cx="31.55" cy="50.61" r="0.59"/><circle class="cls-3" cx="28.95" cy="52.98" r="0.62"/><circle class="cls-3" cx="30.2" cy="54.74" r="0.38"/><circle class="cls-3" cx="33.18" cy="55.37" r="0.4"/><circle class="cls-3" cx="36" cy="55.35" r="0.38"/><circle class="cls-3" cx="38.48" cy="53.08" r="0.31"/><circle class="cls-3" cx="35.81" cy="51.59" r="0.19"/><circle class="cls-3" cx="42.72" cy="55.54" r="0.57"/><circle class="cls-3" cx="45.97" cy="53.61" r="0.27"/><circle class="cls-3" cx="42.48" cy="52.49" r="0.32"/><circle class="cls-3" cx="48.5" cy="51.83" r="0.43"/><circle class="cls-3" cx="51.39" cy="51.14" r="0.47"/><circle class="cls-3" cx="51.72" cy="49.1" r="0.21"/><circle class="cls-3" cx="48.46" cy="54.15" r="0.55"/><circle class="cls-3" cx="45.2" cy="54.96" r="0.42"/><circle class="cls-3" cx="50.28" cy="52.22" r="0.24"/><circle class="cls-3" cx="48.15" cy="49.39" r="0.07"/><circle class="cls-3" cx="44.67" cy="49.95" r="0.11"/><circle class="cls-3" cx="38.75" cy="50.38" r="0.17"/><circle class="cls-3" cx="40.19" cy="49.27" r="0.19"/><circle class="cls-3" cx="47.37" cy="53.16" r="0.39"/><circle class="cls-3" cx="50.28" cy="53.73" r="0.24"/><circle class="cls-3" cx="52.61" cy="52.47" r="0.3"/><circle class="cls-3" cx="52.89" cy="50.46" r="0.08"/><circle class="cls-3" cx="48.72" cy="50.68" r="0.21"/><circle class="cls-3" cx="48.51" cy="48.07" r="0.16"/><circle class="cls-3" cx="54.16" cy="51.61" r="0.55"/><circle class="cls-3" cx="53.82" cy="50.16" r="0.21"/><circle class="cls-3" cx="51.18" cy="49.96" r="0.26"/><path d="M42.83,70.38c.3-2.15,3.95-5.54,4.58-5.1s0,10.12-2.18,10.28S42.83,70.38,42.83,70.38Z"/><path d="M41.71,74.74c-2.55-2.33-3.55-3.94-3.89-4.84S42.25,69.72,43,72A1.94,1.94,0,0,1,41.71,74.74Z"/></svg>