<svg id="Calque_1" data-name="Calque 1" xmlns="http://www.w3.org/2000/svg" viewBox="0 0 80 80"><defs><style>.cls-1,.cls-12,.cls-4,.cls-5{fill:none;}.cls-2{fill:#ccc;}.cls-10,.cls-11,.cls-12,.cls-2,.cls-3,.cls-4,.cls-5,.cls-6,.cls-9{stroke:#000;stroke-miterlimit:10;}.cls-11,.cls-2,.cls-3,.cls-5{stroke-width:3px;}.cls-4{stroke-dasharray:1 2;}.cls-10,.cls-6,.cls-8,.cls-9{fill:#fff;}.cls-6{stroke-width:1.1px;}.cls-7{fill:gold;}.cls-9{stroke-width:0.37px;}.cls-10{stroke-width:0.65px;}.cls-11{fill:#5b5a59;}.cls-12{stroke-width:6px;}</style></defs><title>etapePlan de travail 1 copie 3</title><path class="cls-1" d="M4,40A36,36,0,0,0,74.14,51.43a.11.11,0,0,0,0-.08,35.72,35.72,0,0,0,1.8-10c0-.25,0-.48,0-.73s0-.41,0-.61a35.49,35.49,0,0,0-.36-5A32.26,32.26,0,0,0,75,31.49,36,36,0,0,0,4,40Z"/><polygon class="cls-2" points="62.5 35.5 31.5 25.5 31.5 34.5 62.5 44.5 62.5 35.5"/><polygon class="cls-2" points="62.5 44.5 31.5 34.5 31.5 44.5 62.5 54.5 62.5 44.5"/><polygon class="cls-2" points="62.5 54.5 31.5 44.5 31.5 54.5 62.5 65.5 62.5 54.5"/><polygon class="cls-2" points="61.5 34.5 44.5 16.5 30.5 25.5 61.5 34.5"/><path class="cls-3" d="M47.36,59c0-2.5-3.86-5.5-3.9-.84"/><path class="cls-3" d="M39.36,57c.14-4.5-2.93-5.19-3.9-1.84"/><path class="cls-4" d="M8.09,56.68A19.57,19.57,0,0,0,14.5,48.5"/><polygon points="55 28 34.95 21.53 30.5 24.5 60.5 34.5 55 28"/><polyline class="cls-5" points="42.5 15.5 27.5 26.5 30.5 26.5"/><polygon class="cls-3" points="64.5 66.5 30.5 54.5 26.5 55.5 60.5 69.59 64.5 66.5"/><path class="cls-6" d="M17.66,44.44c-2.36-2.28-1.48-5.09-.08-4.64S17.66,44.44,17.66,44.44Z"/><path d="M21.67,44.29a1.75,1.75,0,0,1-.5,1.1,4,4,0,0,1-.54.54c-.16.13-.33.27-.51.39l-.19.13h0a3.36,3.36,0,0,1-.6.35l-.11.05A1.67,1.67,0,0,1,19,47c-.19.08-.36.16-.55.23a2.16,2.16,0,0,1-.39.12l-.29.08a4.47,4.47,0,0,1-.56.09,2.73,2.73,0,0,1-.46,0h-.13a2.28,2.28,0,0,1-1-.23,1.64,1.64,0,0,1-.83-1,1.47,1.47,0,0,1,.15-1.11,2.79,2.79,0,0,1,.71-.86,3.6,3.6,0,0,1,.63-.46,4.76,4.76,0,0,1,.78-.42,6.73,6.73,0,0,1,.91-.35c.27-.08.55-.15.82-.2C20.29,42.63,21.67,42.95,21.67,44.29Z"/><path class="cls-7" d="M17.76,47.4a4.52,4.52,0,0,1-1.18.14,6.55,6.55,0,0,1-1.52-2,3.46,3.46,0,0,1-.15-.38,2.88,2.88,0,0,1,.71-.86,2.1,2.1,0,0,0,.22.88A6.05,6.05,0,0,0,17.76,47.4Z"/><path class="cls-7" d="M19.32,46.8a7.65,7.65,0,0,1-.92.41h0a7.07,7.07,0,0,1-2.15-3.35,6.9,6.9,0,0,1,.77-.41A6.06,6.06,0,0,0,19.32,46.8Z"/><path class="cls-7" d="M20.64,45.93a6.17,6.17,0,0,1-.71.52,7.19,7.19,0,0,1-2-3.35,6.21,6.21,0,0,1,.83-.2A6.39,6.39,0,0,0,20.64,45.93Z"/><circle class="cls-8" cx="20.51" cy="43.7" r="0.58"/><circle class="cls-8" cx="20.8" cy="43.98" r="0.14"/><path d="M20.8,43.7a.29.29,0,1,0,.29.29.29.29,0,0,0-.29-.29Z"/><path class="cls-6" d="M17.55,44.55c-3.2.75-5.07-1.51-3.95-2.45S17.55,44.55,17.55,44.55Z"/><path class="cls-7" d="M18,47.33a.69.69,0,0,0-.38-.59.73.73,0,0,0-.29-.07.72.72,0,0,0-.28.07.67.67,0,0,0-.39.6,1,1,0,0,0,0,.2,2.74,2.74,0,0,0,.46,0,4.48,4.48,0,0,0,.56-.09Z"/><path class="cls-7" d="M18,47.33a2.16,2.16,0,0,0,.39-.12c.19-.07.36-.15.55-.23a1.67,1.67,0,0,0,.27-.13.81.81,0,0,0-.25-.48.78.78,0,0,0-.55-.21.79.79,0,0,0-.78.59.63.63,0,0,0,0,.23.94.94,0,0,0,.12.44Z"/><path class="cls-7" d="M21.18,45.39a4,4,0,0,1-.54.54c-.16.13-.33.27-.51.39l-.19.13A.8.8,0,0,1,19.7,46a.65.65,0,0,1,0-.16.82.82,0,0,1,.82-.82A.8.8,0,0,1,21.18,45.39Z"/><path class="cls-7" d="M17.21,47.21a.72.72,0,0,1-.05.29,2.73,2.73,0,0,1-.46,0h-.13a2.28,2.28,0,0,1-1-.23.26.26,0,0,1,0-.11.81.81,0,0,1,.82-.82.8.8,0,0,1,.67.35A.81.81,0,0,1,17.21,47.21Z"/><path class="cls-7" d="M20.13,46.31l-.19.13h0a3.36,3.36,0,0,1-.6.35l-.11.05A1.67,1.67,0,0,1,19,47a.79.79,0,0,1-.07-.31.62.62,0,0,1,.08-.31.66.66,0,0,1,.59-.36h.15A.74.74,0,0,1,20.13,46.31Z"/><path class="cls-9" d="M39.52,55.54c-.79-.77-.5-1.71,0-1.56S39.52,55.54,39.52,55.54Z"/><path d="M40.86,55.48a.59.59,0,0,1-.17.37,1.36,1.36,0,0,1-.18.18l-.17.13-.06,0h0a1.13,1.13,0,0,1-.2.12l0,0-.09,0-.18.08-.13,0-.1,0-.19,0h-.2a.77.77,0,0,1-.33-.08.55.55,0,0,1-.28-.35.49.49,0,0,1,0-.37.94.94,0,0,1,.24-.29,1.21,1.21,0,0,1,.21-.15,1.6,1.6,0,0,1,.26-.14l.31-.12.27-.07C40.4,54.93,40.86,55,40.86,55.48Z"/><path class="cls-7" d="M39.55,56.53a1.52,1.52,0,0,1-.4,0,2.2,2.2,0,0,1-.51-.67l-.05-.13a1,1,0,0,1,.24-.29.71.71,0,0,0,.07.29A2,2,0,0,0,39.55,56.53Z"/><path class="cls-7" d="M40.07,56.33l-.31.14h0A2.38,2.38,0,0,1,39,55.34l.26-.14A2,2,0,0,0,40.07,56.33Z"/><path class="cls-7" d="M40.52,56l-.24.18a2.41,2.41,0,0,1-.67-1.13l.28-.07A2.15,2.15,0,0,0,40.52,56Z"/><circle class="cls-8" cx="40.47" cy="55.29" r="0.19"/><path class="cls-8" d="M40.57,55.43a0,0,0,0,1,0,0Z"/><path d="M40.57,55.29a.1.1,0,1,0,.1.1.1.1,0,0,0-.1-.1Z"/><path class="cls-9" d="M39.48,55.57c-1.07.25-1.7-.51-1.33-.82S39.48,55.57,39.48,55.57Z"/><path class="cls-7" d="M39.63,56.51a.23.23,0,0,0-.13-.2l-.1,0-.09,0a.22.22,0,0,0-.13.2.35.35,0,0,0,0,.07h.15l.19,0Z"/><path class="cls-7" d="M39.63,56.51l.13,0,.18-.08.09,0a.27.27,0,0,0-.09-.16.26.26,0,0,0-.18-.07.27.27,0,0,0-.26.2.21.21,0,0,0,0,.08.32.32,0,0,0,0,.15Z"/><path class="cls-7" d="M40.7,55.85a1.36,1.36,0,0,1-.18.18l-.17.13-.06,0a.27.27,0,0,1-.08-.14.22.22,0,0,1,0-.05.28.28,0,0,1,.27-.27A.27.27,0,0,1,40.7,55.85Z"/><path class="cls-7" d="M39.36,56.47a.24.24,0,0,1,0,.1h-.2a.77.77,0,0,1-.33-.08.09.09,0,0,1,0,0,.27.27,0,0,1,.27-.27.27.27,0,0,1,.23.12A.27.27,0,0,1,39.36,56.47Z"/><path class="cls-7" d="M40.35,56.16l-.06,0h0a1.13,1.13,0,0,1-.2.12l0,0-.09,0a.27.27,0,0,1,0-.1.21.21,0,0,1,0-.1.22.22,0,0,1,.2-.12h0A.25.25,0,0,1,40.35,56.16Z"/><path class="cls-9" d="M43,56.84c-.79-.77-.5-1.71,0-1.56S43,56.84,43,56.84Z"/><path d="M44.34,56.79a.59.59,0,0,1-.17.37,1.36,1.36,0,0,1-.18.18l-.17.13-.06,0h0a1.13,1.13,0,0,1-.2.12l0,0-.09,0-.18.08-.13,0-.1,0-.19,0h-.2a.77.77,0,0,1-.33-.08.55.55,0,0,1-.28-.35.49.49,0,0,1,0-.37.94.94,0,0,1,.24-.29,1.21,1.21,0,0,1,.21-.15,1.6,1.6,0,0,1,.26-.14l.31-.12.27-.07C43.88,56.24,44.34,56.34,44.34,56.79Z"/><path class="cls-7" d="M43,57.84a1.52,1.52,0,0,1-.4,0,2.2,2.2,0,0,1-.51-.67l-.05-.13a1,1,0,0,1,.24-.29.71.71,0,0,0,.07.29A2,2,0,0,0,43,57.84Z"/><path class="cls-7" d="M43.55,57.64l-.31.14h0a2.38,2.38,0,0,1-.72-1.13l.26-.14A2,2,0,0,0,43.55,57.64Z"/><path class="cls-7" d="M44,57.34l-.24.18a2.41,2.41,0,0,1-.67-1.13l.28-.07A2.15,2.15,0,0,0,44,57.34Z"/><circle class="cls-8" cx="43.95" cy="56.6" r="0.19"/><path class="cls-8" d="M44,56.74a0,0,0,0,1,0,0Z"/><path d="M44.05,56.6a.1.1,0,1,0,.1.1.1.1,0,0,0-.1-.1Z"/><path class="cls-9" d="M43,56.88c-1.07.25-1.7-.51-1.33-.82S43,56.88,43,56.88Z"/><path class="cls-7" d="M43.12,57.82a.23.23,0,0,0-.13-.2l-.1,0-.09,0a.22.22,0,0,0-.13.2.35.35,0,0,0,0,.07h.15l.19,0Z"/><path class="cls-7" d="M43.12,57.82l.13,0,.18-.08.09,0a.27.27,0,0,0-.09-.16.26.26,0,0,0-.18-.07.27.27,0,0,0-.26.2.21.21,0,0,0,0,.08.32.32,0,0,0,0,.15Z"/><path class="cls-7" d="M44.18,57.16a1.36,1.36,0,0,1-.18.18l-.17.13-.06,0a.27.27,0,0,1-.08-.14.22.22,0,0,1,0-.05A.28.28,0,0,1,44,57,.27.27,0,0,1,44.18,57.16Z"/><path class="cls-7" d="M42.84,57.77a.24.24,0,0,1,0,.1h-.2a.77.77,0,0,1-.33-.08.09.09,0,0,1,0,0,.27.27,0,0,1,.27-.27.27.27,0,0,1,.23.12A.27.27,0,0,1,42.84,57.77Z"/><path class="cls-7" d="M43.83,57.47l-.06,0h0a1.13,1.13,0,0,1-.2.12l0,0-.09,0a.27.27,0,0,1,0-.1.21.21,0,0,1,0-.1.22.22,0,0,1,.2-.12h0A.25.25,0,0,1,43.83,57.47Z"/><path class="cls-9" d="M34.11,56.46c-.79-.77-.5-1.71,0-1.56S34.11,56.46,34.11,56.46Z"/><path d="M35.46,56.41a.59.59,0,0,1-.17.37,1.36,1.36,0,0,1-.18.18l-.17.13-.06,0h0a1.13,1.13,0,0,1-.2.12l0,0-.09,0-.18.08-.13,0-.1,0-.19,0h-.2a.77.77,0,0,1-.33-.08.55.55,0,0,1-.28-.35.49.49,0,0,1,0-.37.94.94,0,0,1,.24-.29,1.21,1.21,0,0,1,.21-.15,1.6,1.6,0,0,1,.26-.14l.31-.12.27-.07C35,55.85,35.46,56,35.46,56.41Z"/><path class="cls-7" d="M34.15,57.45a1.52,1.52,0,0,1-.4,0,2.2,2.2,0,0,1-.51-.67l-.05-.13a1,1,0,0,1,.24-.29.71.71,0,0,0,.07.29A2,2,0,0,0,34.15,57.45Z"/><path class="cls-7" d="M34.67,57.25l-.31.14h0a2.38,2.38,0,0,1-.72-1.13l.26-.14A2,2,0,0,0,34.67,57.25Z"/><path class="cls-7" d="M35.11,57l-.24.18A2.41,2.41,0,0,1,34.2,56l.28-.07A2.15,2.15,0,0,0,35.11,57Z"/><circle class="cls-8" cx="35.07" cy="56.21" r="0.19"/><path class="cls-8" d="M35.17,56.35a0,0,0,0,1,0,0Z"/><path d="M35.17,56.21a.1.1,0,1,0,.1.1.1.1,0,0,0-.1-.1Z"/><path class="cls-9" d="M34.08,56.49c-1.07.25-1.7-.51-1.33-.82S34.08,56.49,34.08,56.49Z"/><path class="cls-7" d="M34.23,57.43a.23.23,0,0,0-.13-.2l-.1,0-.09,0a.22.22,0,0,0-.13.2.35.35,0,0,0,0,.07h.15l.19,0Z"/><path class="cls-7" d="M34.23,57.43l.13,0,.18-.08.09,0a.27.27,0,0,0-.09-.16.26.26,0,0,0-.18-.07.27.27,0,0,0-.26.2.21.21,0,0,0,0,.08.32.32,0,0,0,0,.15Z"/><path class="cls-7" d="M35.29,56.78a1.36,1.36,0,0,1-.18.18l-.17.13-.06,0A.27.27,0,0,1,34.8,57a.22.22,0,0,1,0-.05.28.28,0,0,1,.27-.27A.27.27,0,0,1,35.29,56.78Z"/><path class="cls-7" d="M34,57.39a.24.24,0,0,1,0,.1h-.2a.77.77,0,0,1-.33-.08.09.09,0,0,1,0,0,.27.27,0,0,1,.27-.27.27.27,0,0,1,.23.12A.27.27,0,0,1,34,57.39Z"/><path class="cls-7" d="M34.94,57.09l-.06,0h0a1.13,1.13,0,0,1-.2.12l0,0-.09,0a.27.27,0,0,1,0-.1.21.21,0,0,1,0-.1.22.22,0,0,1,.2-.12h0A.25.25,0,0,1,34.94,57.09Z"/><path class="cls-10" d="M27,60.21c-1.39-1.34-.87-3,0-2.73S27,60.21,27,60.21Z"/><path d="M29.34,60.12a1,1,0,0,1-.29.65,2.38,2.38,0,0,1-.32.32l-.3.23-.11.08h0a2,2,0,0,1-.35.21l-.06,0-.16.08-.32.13-.23.07L27,62l-.33.06-.27,0h-.08a1.34,1.34,0,0,1-.58-.13,1,1,0,0,1-.49-.61.86.86,0,0,1,.09-.65,1.64,1.64,0,0,1,.42-.5,2.12,2.12,0,0,1,.37-.27,2.8,2.8,0,0,1,.46-.24,4,4,0,0,1,.54-.21l.48-.12C28.53,59.14,29.34,59.33,29.34,60.12Z"/><path class="cls-7" d="M27,62a2.66,2.66,0,0,1-.7.08,3.85,3.85,0,0,1-.9-1.17,2,2,0,0,1-.09-.22,1.7,1.7,0,0,1,.42-.51,1.24,1.24,0,0,0,.13.52A3.56,3.56,0,0,0,27,62Z"/><path class="cls-7" d="M28,61.6a4.51,4.51,0,0,1-.54.24h0a4.16,4.16,0,0,1-1.27-2,4.06,4.06,0,0,1,.45-.24A3.57,3.57,0,0,0,28,61.6Z"/><path class="cls-7" d="M28.73,61.08a3.63,3.63,0,0,1-.42.31,4.23,4.23,0,0,1-1.18-2,3.66,3.66,0,0,1,.49-.12A3.76,3.76,0,0,0,28.73,61.08Z"/><circle class="cls-8" cx="28.66" cy="59.77" r="0.34"/><circle class="cls-8" cx="28.83" cy="59.94" r="0.08"/><path d="M28.83,59.77a.17.17,0,1,0,.17.17.17.17,0,0,0-.17-.17Z"/><path class="cls-10" d="M26.92,60.27c-1.88.44-3-.89-2.32-1.44S26.92,60.27,26.92,60.27Z"/><path class="cls-7" d="M27.19,61.91a.41.41,0,0,0-.22-.35.43.43,0,0,0-.17,0,.42.42,0,0,0-.17,0,.39.39,0,0,0-.23.35.61.61,0,0,0,0,.12l.27,0L27,62Z"/><path class="cls-7" d="M27.19,61.91l.23-.07.32-.13.16-.08a.48.48,0,0,0-.15-.28.46.46,0,0,0-.32-.13.47.47,0,0,0-.46.35.37.37,0,0,0,0,.13A.56.56,0,0,0,27,62Z"/><path class="cls-7" d="M29,60.77a2.38,2.38,0,0,1-.32.32l-.3.23-.11.08a.47.47,0,0,1-.14-.25.38.38,0,0,1,0-.09.48.48,0,0,1,.48-.48A.47.47,0,0,1,29,60.77Z"/><path class="cls-7" d="M26.71,61.84a.42.42,0,0,1,0,.17l-.27,0h-.08a1.34,1.34,0,0,1-.58-.13.15.15,0,0,1,0-.06.48.48,0,0,1,.48-.48.47.47,0,0,1,.39.21A.48.48,0,0,1,26.71,61.84Z"/><path class="cls-7" d="M28.43,61.31l-.11.08h0a2,2,0,0,1-.35.21l-.06,0-.16.08a.47.47,0,0,1,0-.18.37.37,0,0,1,0-.18.39.39,0,0,1,.35-.21h.09A.43.43,0,0,1,28.43,61.31Z"/><path class="cls-9" d="M36.81,58.15c-.36-1,.33-1.75.68-1.4S36.81,58.15,36.81,58.15Z"/><path d="M38,58.72a.59.59,0,0,1-.32.25,1.36,1.36,0,0,1-.24.08l-.21,0h-.46l-.2,0-.13,0-.1,0L36.19,59,36,58.94l0,0a.77.77,0,0,1-.26-.22.55.55,0,0,1-.09-.44.49.49,0,0,1,.21-.31.94.94,0,0,1,.34-.15,1.21,1.21,0,0,1,.26,0h.3l.33,0,.28.06C37.87,58,38.23,58.32,38,58.72Z"/><path class="cls-7" d="M36.38,59.05a1.52,1.52,0,0,1-.37-.14,2.2,2.2,0,0,1-.15-.83,1.16,1.16,0,0,1,0-.14,1,1,0,0,1,.34-.15.71.71,0,0,0-.07.3A2,2,0,0,0,36.38,59.05Z"/><path class="cls-7" d="M36.94,59.11l-.34,0h0a2.38,2.38,0,0,1-.13-1.33h.29A2,2,0,0,0,36.94,59.11Z"/><path class="cls-7" d="M37.47,59.05l-.29,0a2.41,2.41,0,0,1-.09-1.31l.28.07A2.15,2.15,0,0,0,37.47,59.05Z"/><circle class="cls-8" cx="37.77" cy="58.36" r="0.19" transform="translate(-31.38 65.54) rotate(-63.02)"/><circle class="cls-8" cx="37.81" cy="58.5" r="0.1" transform="translate(-31.47 65.65) rotate(-63.02)"/><path d="M37.81,58.4a.1.1,0,0,0,0,.18h0a.1.1,0,0,0,0-.18Z"/><path class="cls-9" d="M36.76,58.17c-1.07-.26-1.29-1.23-.81-1.33S36.76,58.17,36.76,58.17Z"/><path class="cls-7" d="M36.47,59.07a.23.23,0,0,0,0-.23.25.25,0,0,0-.08-.06l-.09,0a.22.22,0,0,0-.21.12l0,.06.14.06.18.06Z"/><path class="cls-7" d="M36.47,59.07l.13,0,.2,0h.1a.27.27,0,0,0,0-.18.26.26,0,0,0-.13-.15.27.27,0,0,0-.32.06l0,.06a.32.32,0,0,0,0,.15Z"/><path class="cls-7" d="M37.71,59a1.36,1.36,0,0,1-.24.08l-.21,0h-.08a.27.27,0,0,1,0-.17l0-.05a.28.28,0,0,1,.37-.12A.27.27,0,0,1,37.71,59Z"/><path class="cls-7" d="M36.25,58.91a.24.24,0,0,1-.06.08L36,58.94l0,0a.77.77,0,0,1-.26-.22v0a.27.27,0,0,1,.37-.12.27.27,0,0,1,.15.21A.27.27,0,0,1,36.25,58.91Z"/><path class="cls-7" d="M37.26,59.09h-.46a.27.27,0,0,1,0-.1.21.21,0,0,1,.07-.08.22.22,0,0,1,.23,0l0,0A.25.25,0,0,1,37.26,59.09Z"/><path class="cls-9" d="M50.22,60.66c-.36-1,.33-1.75.68-1.4S50.22,60.66,50.22,60.66Z"/><path d="M51.44,61.23a.59.59,0,0,1-.32.25,1.36,1.36,0,0,1-.24.08l-.21,0h-.46l-.2,0-.13,0-.1,0-.18-.06-.14-.06,0,0a.77.77,0,0,1-.26-.22.55.55,0,0,1-.09-.44.49.49,0,0,1,.21-.31.94.94,0,0,1,.34-.15,1.21,1.21,0,0,1,.26,0h.3l.33,0,.28.06C51.28,60.52,51.65,60.83,51.44,61.23Z"/><path class="cls-7" d="M49.79,61.57a1.52,1.52,0,0,1-.37-.14,2.2,2.2,0,0,1-.15-.83,1.16,1.16,0,0,1,0-.14,1,1,0,0,1,.34-.15.71.71,0,0,0-.07.3A2,2,0,0,0,49.79,61.57Z"/><path class="cls-7" d="M50.36,61.62l-.34,0h0a2.38,2.38,0,0,1-.13-1.33h.29A2,2,0,0,0,50.36,61.62Z"/><path class="cls-7" d="M50.88,61.56l-.29,0a2.41,2.41,0,0,1-.09-1.31l.28.07A2.15,2.15,0,0,0,50.88,61.56Z"/><circle class="cls-8" cx="51.18" cy="60.88" r="0.19" transform="translate(-26.29 78.87) rotate(-63.02)"/><circle class="cls-8" cx="51.23" cy="61.01" r="0.1" transform="translate(-26.38 78.98) rotate(-63.02)"/><path d="M51.23,60.91a.1.1,0,0,0,0,.18h0a.1.1,0,0,0,0-.18Z"/><path class="cls-9" d="M50.17,60.68c-1.07-.26-1.29-1.23-.81-1.33S50.17,60.68,50.17,60.68Z"/><path class="cls-7" d="M49.88,61.58a.23.23,0,0,0,0-.23.25.25,0,0,0-.08-.06l-.09,0a.22.22,0,0,0-.21.12l0,.06.14.06.18.06Z"/><path class="cls-7" d="M49.88,61.58l.13,0,.2,0h.1a.27.27,0,0,0,0-.18.26.26,0,0,0-.13-.15.27.27,0,0,0-.32.06l0,.06a.32.32,0,0,0,0,.15Z"/><path class="cls-7" d="M51.13,61.48a1.36,1.36,0,0,1-.24.08l-.21,0H50.6a.27.27,0,0,1,0-.17l0-.05a.28.28,0,0,1,.37-.12A.27.27,0,0,1,51.13,61.48Z"/><path class="cls-7" d="M49.66,61.42a.24.24,0,0,1-.06.08l-.14-.06,0,0a.77.77,0,0,1-.26-.22v0a.27.27,0,0,1,.37-.12.27.27,0,0,1,.15.21A.27.27,0,0,1,49.66,61.42Z"/><path class="cls-7" d="M50.67,61.6h-.46a.27.27,0,0,1,0-.1.21.21,0,0,1,.07-.08.22.22,0,0,1,.23,0l0,0A.25.25,0,0,1,50.67,61.6Z"/><path class="cls-11" d="M63.5,54.5v11l2.68-1A37.67,37.67,0,0,0,74,51.06a.11.11,0,0,0,0-.08Z"/><path class="cls-11" d="M62.5,44.5l.36,10.35.64-.22L74,51.06a.11.11,0,0,0,0-.08A37.7,37.7,0,0,0,76,40.41c0-.26,0-.51,0-.77L62.84,44.38Z"/><path class="cls-11" d="M62.5,34.5l0,1,.3,8.84,0,.47L76,40.41c0-.26,0-.51,0-.77s0-.43,0-.64a37.47,37.47,0,0,0-.38-5.33A34.05,34.05,0,0,0,74.93,30Z"/><path class="cls-3" d="M55.66,62.21c0-3.71-4.16-5-4.16-1.71"/><path class="cls-11" d="M43.5,15.5l17,23,15-4c-.16-1.24-.28-3.28-.57-4.48A37.73,37.73,0,0,0,66,13.36Z"/><path class="cls-12" d="M4,40A36,36,0,0,0,74.14,51.43a.11.11,0,0,0,0-.08,35.72,35.72,0,0,0,1.8-10c0-.25,0-.48,0-.73s0-.41,0-.61a35.49,35.49,0,0,0-.36-5A32.26,32.26,0,0,0,75,31.49,36,36,0,0,0,4,40Z"/><path class="cls-9" d="M54.31,60.19c-.79-.77-.5-1.71,0-1.56S54.31,60.19,54.31,60.19Z"/><path d="M55.66,60.13a.59.59,0,0,1-.17.37,1.36,1.36,0,0,1-.18.18l-.17.13-.06,0h0a1.13,1.13,0,0,1-.2.12l0,0-.09,0-.18.08-.13,0-.1,0-.19,0h-.2a.77.77,0,0,1-.33-.08.55.55,0,0,1-.28-.35.49.49,0,0,1,0-.37.94.94,0,0,1,.24-.29,1.21,1.21,0,0,1,.21-.15,1.6,1.6,0,0,1,.26-.14l.31-.12.27-.07C55.19,59.58,55.66,59.68,55.66,60.13Z"/><path class="cls-7" d="M54.34,61.18a1.52,1.52,0,0,1-.4,0,2.2,2.2,0,0,1-.51-.67l-.05-.13a1,1,0,0,1,.24-.29.71.71,0,0,0,.07.29A2,2,0,0,0,54.34,61.18Z"/><path class="cls-7" d="M54.87,61l-.31.14h0A2.38,2.38,0,0,1,53.83,60l.26-.14A2,2,0,0,0,54.87,61Z"/><path class="cls-7" d="M55.31,60.69l-.24.18a2.41,2.41,0,0,1-.67-1.13l.28-.07A2.15,2.15,0,0,0,55.31,60.69Z"/><circle class="cls-8" cx="55.27" cy="59.94" r="0.19"/><path class="cls-8" d="M55.36,60.08a0,0,0,0,1,0,0Z"/><path d="M55.36,59.94a.1.1,0,1,0,.1.1.1.1,0,0,0-.1-.1Z"/><path class="cls-9" d="M54.27,60.22c-1.07.25-1.7-.51-1.33-.82S54.27,60.22,54.27,60.22Z"/><path class="cls-7" d="M54.43,61.16a.23.23,0,0,0-.13-.2l-.1,0-.09,0a.22.22,0,0,0-.13.2.35.35,0,0,0,0,.07h.15l.19,0Z"/><path class="cls-7" d="M54.43,61.16l.13,0,.18-.08.09,0a.27.27,0,0,0-.09-.16.26.26,0,0,0-.18-.07.27.27,0,0,0-.26.2.21.21,0,0,0,0,.08.32.32,0,0,0,0,.15Z"/><path class="cls-7" d="M55.49,60.5a1.36,1.36,0,0,1-.18.18l-.17.13-.06,0a.27.27,0,0,1-.08-.14.22.22,0,0,1,0-.05.28.28,0,0,1,.27-.27A.27.27,0,0,1,55.49,60.5Z"/><path class="cls-7" d="M54.16,61.12a.24.24,0,0,1,0,.1h-.2a.77.77,0,0,1-.33-.08.09.09,0,0,1,0,0,.27.27,0,0,1,.27-.27.27.27,0,0,1,.23.12A.27.27,0,0,1,54.16,61.12Z"/><path class="cls-7" d="M55.14,60.81l-.06,0h0a1.13,1.13,0,0,1-.2.12l0,0-.09,0a.27.27,0,0,1,0-.1.21.21,0,0,1,0-.1.22.22,0,0,1,.2-.12h0A.25.25,0,0,1,55.14,60.81Z"/></svg>