<svg id="Calque_1" data-name="Calque 1" xmlns="http://www.w3.org/2000/svg" viewBox="0 0 80 80"><defs><style>.cls-1,.cls-5{fill:#fff;}.cls-2{fill:#5b5a59;}.cls-2,.cls-3,.cls-4,.cls-5,.cls-7,.cls-8,.cls-9{stroke:#000;stroke-miterlimit:10;}.cls-2,.cls-3,.cls-4,.cls-8{stroke-width:3px;}.cls-3{fill:#ccc;}.cls-5{stroke-width:0.82px;}.cls-6{fill:gold;}.cls-7,.cls-8,.cls-9{fill:none;}.cls-7{stroke-dasharray:1 2;}.cls-9{stroke-width:6px;}</style></defs><title>etapePlan de travail 1 copie</title><path class="cls-1" d="M76,40A36,36,0,0,1,5.86,51.43a.11.11,0,0,1,0-.08,35.72,35.72,0,0,1-1.8-10c0-.25,0-.48,0-.73S4,40.2,4,40a35.49,35.49,0,0,1,.36-5A32.26,32.26,0,0,1,5,31.49,36,36,0,0,1,76,40Z"/><polygon class="cls-2" points="17.5 35.5 48.5 25.5 48.5 34.5 17.5 44.5 17.5 35.5"/><polygon class="cls-2" points="17.5 44.5 48.5 34.5 48.5 44.5 17.5 54.5 17.5 44.5"/><polygon class="cls-2" points="17.5 54.5 48.5 44.5 48.5 54.5 17.5 65.5 17.5 54.5"/><polygon class="cls-2" points="18.5 34.5 35.5 16.5 49.5 25.5 18.5 34.5"/><path class="cls-3" d="M16.5,54.5v11l-2.68-1A37.67,37.67,0,0,1,6,51.06a.11.11,0,0,1,0-.08Z"/><path class="cls-3" d="M17.5,44.5l-.36,10.35-.64-.22L6,51.06a.11.11,0,0,1,0-.08A37.7,37.7,0,0,1,4,40.41c0-.26,0-.51,0-.77l13.15,4.74Z"/><path class="cls-3" d="M17.5,34.5l0,1-.3,8.84,0,.47L4,40.41c0-.26,0-.51,0-.77s0-.43,0-.64a37.47,37.47,0,0,1,.38-5.33A34.05,34.05,0,0,1,5.07,30Z"/><path class="cls-4" d="M24.34,62.21c0-3.71,4.16-5,4.16-1.71"/><path class="cls-4" d="M32.64,59c0-2.5,3.86-5.5,3.9-.84"/><path class="cls-4" d="M40.64,57c-.14-4.5,2.93-5.19,3.9-1.84"/><path class="cls-5" d="M63.88,46.5c-1.76-1.7-1.1-3.79-.06-3.47S63.88,46.5,63.88,46.5Z"/><path d="M66.87,46.39a1.85,1.85,0,0,1-.77,1.23,4.61,4.61,0,0,1-.53.39,4.17,4.17,0,0,1-.45.26h0a5.71,5.71,0,0,1-.68.31h0a4.11,4.11,0,0,1-.48.15,3.37,3.37,0,0,1-.88.1,1.3,1.3,0,0,1-1.35-.94,1.07,1.07,0,0,1,.1-.83,2.15,2.15,0,0,1,.53-.64h0a3.59,3.59,0,0,1,.47-.34,5.15,5.15,0,0,1,.57-.31,5.37,5.37,0,0,1,.68-.25,4.64,4.64,0,0,1,.62-.15C65.84,45.15,66.87,45.39,66.87,46.39Z"/><path class="cls-6" d="M63.95,48.71a3.37,3.37,0,0,1-.88.1,4.89,4.89,0,0,1-1.14-1.48,2.58,2.58,0,0,1-.11-.28,2.15,2.15,0,0,1,.53-.64,1.57,1.57,0,0,0,.16.65A4.52,4.52,0,0,0,63.95,48.71Z"/><path class="cls-6" d="M65.12,48.26a5.71,5.71,0,0,1-.68.31h0a5.28,5.28,0,0,1-1.6-2.5,5.15,5.15,0,0,1,.57-.31A4.52,4.52,0,0,0,65.12,48.26Z"/><path class="cls-6" d="M66.1,47.61a4.61,4.61,0,0,1-.53.39,5.36,5.36,0,0,1-1.49-2.5,4.64,4.64,0,0,1,.62-.15A4.77,4.77,0,0,0,66.1,47.61Z"/><circle class="cls-1" cx="66" cy="45.95" r="0.43"/><circle class="cls-1" cx="66.22" cy="46.16" r="0.11"/><path d="M66.22,45.95a.22.22,0,1,0,.21.22.22.22,0,0,0-.21-.22Z"/><path class="cls-5" d="M63.8,46.59c-2.39.56-3.79-1.13-2.94-1.83S63.8,46.59,63.8,46.59Z"/><path class="cls-7" d="M33.5,59.5c1,3,5,8,8,9s3-7,10-6c3.21.46,10.82-2,11-6,.15-3.22-5-5-1-8"/><polygon points="25 28 45.05 21.53 49.5 24.5 19.5 34.5 25 28"/><polyline class="cls-8" points="37.5 15.5 52.5 26.5 49.5 26.5"/><path class="cls-3" d="M36.5,15.5l-17,23-15-4c.16-1.24.28-3.28.57-4.48A37.73,37.73,0,0,1,14,13.36Z"/><path class="cls-9" d="M76,40A36,36,0,0,1,5.86,51.43a.11.11,0,0,1,0-.08,35.72,35.72,0,0,1-1.8-10c0-.25,0-.48,0-.73S4,40.2,4,40a35.49,35.49,0,0,1,.36-5A32.26,32.26,0,0,1,5,31.49,36,36,0,0,1,76,40Z"/><polygon class="cls-4" points="15.5 66.5 49.5 54.5 53.5 55.5 19.5 69.59 15.5 66.5"/></svg>